%TF.GenerationSoftware,KiCad,Pcbnew,(5.1.9)-1*%
%TF.CreationDate,2021-05-20T15:22:16+09:00*%
%TF.ProjectId,esp32_nodemcu,65737033-325f-46e6-9f64-656d63752e6b,rev?*%
%TF.SameCoordinates,Original*%
%TF.FileFunction,Soldermask,Bot*%
%TF.FilePolarity,Negative*%
%FSLAX46Y46*%
G04 Gerber Fmt 4.6, Leading zero omitted, Abs format (unit mm)*
G04 Created by KiCad (PCBNEW (5.1.9)-1) date 2021-05-20 15:22:16*
%MOMM*%
%LPD*%
G01*
G04 APERTURE LIST*
%TA.AperFunction,Profile*%
%ADD10C,0.050000*%
%TD*%
%ADD11C,6.400000*%
%ADD12C,3.600000*%
%ADD13R,1.560000X1.560000*%
%ADD14C,1.560000*%
%ADD15R,2.000000X2.000000*%
%ADD16C,2.000000*%
%ADD17R,1.700000X1.700000*%
%ADD18O,1.700000X1.700000*%
G04 APERTURE END LIST*
D10*
X124460000Y-139700000D02*
X124460000Y-133350000D01*
X180340000Y-139700000D02*
X124460000Y-139700000D01*
X180340000Y-133350000D02*
X180340000Y-139700000D01*
X124460000Y-133350000D02*
X124460000Y-73660000D01*
X180340000Y-73660000D02*
X180340000Y-133350000D01*
X124460000Y-73660000D02*
X180340000Y-73660000D01*
D11*
%TO.C,REF\u002A\u002A*%
X128270000Y-135890000D03*
D12*
X128270000Y-135890000D03*
%TD*%
D11*
%TO.C,REF\u002A\u002A*%
X176530000Y-135890000D03*
D12*
X176530000Y-135890000D03*
%TD*%
D11*
%TO.C,REF\u002A\u002A*%
X128270000Y-77470000D03*
D12*
X128270000Y-77470000D03*
%TD*%
D11*
%TO.C,REF\u002A\u002A*%
X176530000Y-77470000D03*
D12*
X176530000Y-77470000D03*
%TD*%
D13*
%TO.C,U1*%
X140610001Y-83865001D03*
D14*
X140610001Y-86405001D03*
X140610001Y-129585001D03*
X140610001Y-88945001D03*
X140610001Y-91485001D03*
X140610001Y-94025001D03*
X140610001Y-96565001D03*
X140610001Y-99105001D03*
X140610001Y-101645001D03*
X140610001Y-104185001D03*
X140610001Y-106725001D03*
X140610001Y-109265001D03*
X140610001Y-111805001D03*
X140610001Y-114345001D03*
X140610001Y-116885001D03*
X140610001Y-119425001D03*
X140610001Y-121965001D03*
X140610001Y-124505001D03*
X140610001Y-127045001D03*
X166010001Y-83865001D03*
X166010001Y-86405001D03*
X166010001Y-88945001D03*
X166010001Y-91485001D03*
X166010001Y-94025001D03*
X166010001Y-96565001D03*
X166010001Y-99105001D03*
X166010001Y-101645001D03*
X166010001Y-104185001D03*
X166010001Y-106725001D03*
X166010001Y-109265001D03*
X166010001Y-111805001D03*
X166010001Y-114345001D03*
X166010001Y-116885001D03*
X166010001Y-119425001D03*
X166010001Y-121965001D03*
X166010001Y-124505001D03*
X166010001Y-127045001D03*
X166010001Y-129585001D03*
%TD*%
D15*
%TO.C,C1*%
X129540000Y-124460000D03*
D16*
X134540000Y-124460000D03*
%TD*%
D17*
%TO.C,IR1*%
X130810000Y-110490000D03*
D18*
X133350000Y-110490000D03*
X135890000Y-110490000D03*
%TD*%
%TO.C,IR2*%
X176530000Y-110490000D03*
X173990000Y-110490000D03*
D17*
X171450000Y-110490000D03*
%TD*%
M02*
