M48
; DRILL file {KiCad (5.1.9)-1} date 05/26/21 20:45:14
; FORMAT={-:-/ absolute / inch / decimal}
; #@! TF.CreationDate,2021-05-26T20:45:14+09:00
; #@! TF.GenerationSoftware,Kicad,Pcbnew,(5.1.9)-1
; #@! TF.FileFunction,Plated,1,2,PTH
FMAT,2
INCH
T1C0.0394
T2C0.0409
%
G90
G05
T1
X5.1Y-4.1
X5.1Y-4.6
X5.2Y-4.1
X5.2969Y-4.6
X5.3Y-4.1
X7.1Y-4.1
X7.2Y-4.1
X7.3Y-4.1
T2
X5.7Y-2.972
X5.7Y-3.072
X5.7Y-3.172
X5.7Y-3.272
X5.7Y-3.372
X5.7Y-3.472
X5.7Y-3.572
X5.7Y-3.672
X5.7Y-3.772
X5.7Y-3.872
X5.7Y-3.972
X5.7Y-4.072
X5.7Y-4.172
X5.7Y-4.272
X5.7Y-4.372
X5.7Y-4.472
X5.7Y-4.572
X5.7Y-4.672
X5.7Y-4.772
X6.7Y-2.972
X6.7Y-3.072
X6.7Y-3.172
X6.7Y-3.272
X6.7Y-3.372
X6.7Y-3.472
X6.7Y-3.572
X6.7Y-3.672
X6.7Y-3.772
X6.7Y-3.872
X6.7Y-3.972
X6.7Y-4.072
X6.7Y-4.172
X6.7Y-4.272
X6.7Y-4.372
X6.7Y-4.472
X6.7Y-4.572
X6.7Y-4.672
X6.7Y-4.772
T0
M30
