%TF.GenerationSoftware,KiCad,Pcbnew,(5.1.9)-1*%
%TF.CreationDate,2021-04-29T16:19:52+09:00*%
%TF.ProjectId,esp32_nodemcu,65737033-325f-46e6-9f64-656d63752e6b,rev?*%
%TF.SameCoordinates,Original*%
%TF.FileFunction,Legend,Top*%
%TF.FilePolarity,Positive*%
%FSLAX46Y46*%
G04 Gerber Fmt 4.6, Leading zero omitted, Abs format (unit mm)*
G04 Created by KiCad (PCBNEW (5.1.9)-1) date 2021-04-29 16:19:52*
%MOMM*%
%LPD*%
G01*
G04 APERTURE LIST*
%TA.AperFunction,Profile*%
%ADD10C,0.050000*%
%TD*%
%ADD11C,0.120000*%
%ADD12C,0.150000*%
G04 APERTURE END LIST*
D10*
X132080000Y-86360000D02*
X148590000Y-86360000D01*
X149860000Y-57150000D02*
X149860000Y-85090000D01*
X132080000Y-55880000D02*
X148590000Y-55880000D01*
X149860000Y-85090000D02*
G75*
G02*
X148590000Y-86360000I-1270000J0D01*
G01*
X130810000Y-57150000D02*
X130810000Y-85090000D01*
X132080000Y-86360000D02*
G75*
G02*
X130810000Y-85090000I0J1270000D01*
G01*
X130810000Y-57150000D02*
G75*
G02*
X132080000Y-55880000I1270000J0D01*
G01*
X148590000Y-55880000D02*
G75*
G02*
X149860000Y-57150000I0J-1270000D01*
G01*
D11*
%TO.C,D1*%
X142530000Y-80200000D02*
X142530000Y-80044000D01*
X142530000Y-82516000D02*
X142530000Y-82360000D01*
X139297665Y-82358608D02*
G75*
G03*
X142530000Y-82515516I1672335J1078608D01*
G01*
X139297665Y-80201392D02*
G75*
G02*
X142530000Y-80044484I1672335J-1078608D01*
G01*
X139928870Y-82359837D02*
G75*
G03*
X142010961Y-82360000I1041130J1079837D01*
G01*
X139928870Y-80200163D02*
G75*
G02*
X142010961Y-80200000I1041130J-1079837D01*
G01*
%TO.C,J1*%
X143040000Y-58530000D02*
X143040000Y-57930000D01*
X141440000Y-58530000D02*
X143040000Y-58530000D01*
X141440000Y-57930000D02*
X141440000Y-58530000D01*
X140500000Y-58530000D02*
X140500000Y-57930000D01*
X138900000Y-58530000D02*
X140500000Y-58530000D01*
X138900000Y-57930000D02*
X138900000Y-58530000D01*
X141990000Y-63950000D02*
X141990000Y-62950000D01*
X139950000Y-63950000D02*
X139950000Y-62950000D01*
X141990000Y-62420000D02*
X142240000Y-62950000D01*
X139950000Y-62420000D02*
X141990000Y-62420000D01*
X139700000Y-62950000D02*
X139950000Y-62420000D01*
X142240000Y-62950000D02*
X142240000Y-63950000D01*
X139700000Y-62950000D02*
X142240000Y-62950000D01*
X139700000Y-63950000D02*
X139700000Y-62950000D01*
X138030000Y-58960000D02*
X138030000Y-62960000D01*
X143620000Y-57930000D02*
X138320000Y-57930000D01*
X143620000Y-63950000D02*
X143620000Y-57930000D01*
X138320000Y-63950000D02*
X143620000Y-63950000D01*
X138320000Y-57930000D02*
X138320000Y-63950000D01*
%TO.C,R1*%
X138330000Y-75660000D02*
X138660000Y-75660000D01*
X138330000Y-69120000D02*
X138330000Y-75660000D01*
X138660000Y-69120000D02*
X138330000Y-69120000D01*
X141070000Y-75660000D02*
X140740000Y-75660000D01*
X141070000Y-69120000D02*
X141070000Y-75660000D01*
X140740000Y-69120000D02*
X141070000Y-69120000D01*
%TD*%
%TO.C,D1*%
D12*
X140231904Y-84692380D02*
X140231904Y-83692380D01*
X140470000Y-83692380D01*
X140612857Y-83740000D01*
X140708095Y-83835238D01*
X140755714Y-83930476D01*
X140803333Y-84120952D01*
X140803333Y-84263809D01*
X140755714Y-84454285D01*
X140708095Y-84549523D01*
X140612857Y-84644761D01*
X140470000Y-84692380D01*
X140231904Y-84692380D01*
X141755714Y-84692380D02*
X141184285Y-84692380D01*
X141470000Y-84692380D02*
X141470000Y-83692380D01*
X141374761Y-83835238D01*
X141279523Y-83930476D01*
X141184285Y-83978095D01*
%TO.C,J1*%
X140636666Y-56292380D02*
X140636666Y-57006666D01*
X140589047Y-57149523D01*
X140493809Y-57244761D01*
X140350952Y-57292380D01*
X140255714Y-57292380D01*
X141636666Y-57292380D02*
X141065238Y-57292380D01*
X141350952Y-57292380D02*
X141350952Y-56292380D01*
X141255714Y-56435238D01*
X141160476Y-56530476D01*
X141065238Y-56578095D01*
%TO.C,R1*%
X142522380Y-72556666D02*
X142046190Y-72890000D01*
X142522380Y-73128095D02*
X141522380Y-73128095D01*
X141522380Y-72747142D01*
X141570000Y-72651904D01*
X141617619Y-72604285D01*
X141712857Y-72556666D01*
X141855714Y-72556666D01*
X141950952Y-72604285D01*
X141998571Y-72651904D01*
X142046190Y-72747142D01*
X142046190Y-73128095D01*
X142522380Y-71604285D02*
X142522380Y-72175714D01*
X142522380Y-71890000D02*
X141522380Y-71890000D01*
X141665238Y-71985238D01*
X141760476Y-72080476D01*
X141808095Y-72175714D01*
%TD*%
M02*
