%TF.GenerationSoftware,KiCad,Pcbnew,(5.1.9)-1*%
%TF.CreationDate,2021-05-20T15:22:16+09:00*%
%TF.ProjectId,esp32_nodemcu,65737033-325f-46e6-9f64-656d63752e6b,rev?*%
%TF.SameCoordinates,Original*%
%TF.FileFunction,Legend,Top*%
%TF.FilePolarity,Positive*%
%FSLAX46Y46*%
G04 Gerber Fmt 4.6, Leading zero omitted, Abs format (unit mm)*
G04 Created by KiCad (PCBNEW (5.1.9)-1) date 2021-05-20 15:22:16*
%MOMM*%
%LPD*%
G01*
G04 APERTURE LIST*
%TA.AperFunction,Profile*%
%ADD10C,0.050000*%
%TD*%
%ADD11C,0.250000*%
%ADD12C,0.100000*%
%ADD13C,0.127000*%
%ADD14C,0.120000*%
%ADD15C,0.150000*%
%ADD16C,0.015000*%
G04 APERTURE END LIST*
D10*
X124460000Y-139700000D02*
X124460000Y-133350000D01*
X180340000Y-139700000D02*
X124460000Y-139700000D01*
X180340000Y-133350000D02*
X180340000Y-139700000D01*
X124460000Y-133350000D02*
X124460000Y-73660000D01*
X180340000Y-73660000D02*
X180340000Y-133350000D01*
X124460000Y-73660000D02*
X180340000Y-73660000D01*
D11*
X163060000Y-94631904D02*
X163107619Y-94536666D01*
X163107619Y-94393809D01*
X163060000Y-94250952D01*
X162964761Y-94155714D01*
X162869523Y-94108095D01*
X162679047Y-94060476D01*
X162536190Y-94060476D01*
X162345714Y-94108095D01*
X162250476Y-94155714D01*
X162155238Y-94250952D01*
X162107619Y-94393809D01*
X162107619Y-94489047D01*
X162155238Y-94631904D01*
X162202857Y-94679523D01*
X162536190Y-94679523D01*
X162536190Y-94489047D01*
X162107619Y-95108095D02*
X163107619Y-95108095D01*
X163107619Y-95489047D01*
X163060000Y-95584285D01*
X163012380Y-95631904D01*
X162917142Y-95679523D01*
X162774285Y-95679523D01*
X162679047Y-95631904D01*
X162631428Y-95584285D01*
X162583809Y-95489047D01*
X162583809Y-95108095D01*
X162107619Y-96108095D02*
X163107619Y-96108095D01*
X163107619Y-96774761D02*
X163107619Y-96965238D01*
X163060000Y-97060476D01*
X162964761Y-97155714D01*
X162774285Y-97203333D01*
X162440952Y-97203333D01*
X162250476Y-97155714D01*
X162155238Y-97060476D01*
X162107619Y-96965238D01*
X162107619Y-96774761D01*
X162155238Y-96679523D01*
X162250476Y-96584285D01*
X162440952Y-96536666D01*
X162774285Y-96536666D01*
X162964761Y-96584285D01*
X163060000Y-96679523D01*
X163107619Y-96774761D01*
X163012380Y-98346190D02*
X163060000Y-98393809D01*
X163107619Y-98489047D01*
X163107619Y-98727142D01*
X163060000Y-98822380D01*
X163012380Y-98870000D01*
X162917142Y-98917619D01*
X162821904Y-98917619D01*
X162679047Y-98870000D01*
X162107619Y-98298571D01*
X162107619Y-98917619D01*
X163012380Y-99298571D02*
X163060000Y-99346190D01*
X163107619Y-99441428D01*
X163107619Y-99679523D01*
X163060000Y-99774761D01*
X163012380Y-99822380D01*
X162917142Y-99870000D01*
X162821904Y-99870000D01*
X162679047Y-99822380D01*
X162107619Y-99250952D01*
X162107619Y-99870000D01*
X162774285Y-100917619D02*
X162774285Y-101298571D01*
X162107619Y-101060476D02*
X162964761Y-101060476D01*
X163060000Y-101108095D01*
X163107619Y-101203333D01*
X163107619Y-101298571D01*
X162107619Y-101774761D02*
X162155238Y-101679523D01*
X162202857Y-101631904D01*
X162298095Y-101584285D01*
X162583809Y-101584285D01*
X162679047Y-101631904D01*
X162726666Y-101679523D01*
X162774285Y-101774761D01*
X162774285Y-101917619D01*
X162726666Y-102012857D01*
X162679047Y-102060476D01*
X162583809Y-102108095D01*
X162298095Y-102108095D01*
X162202857Y-102060476D01*
X162155238Y-102012857D01*
X162107619Y-101917619D01*
X162107619Y-101774761D01*
X162107619Y-102536666D02*
X162774285Y-102536666D01*
X162583809Y-102536666D02*
X162679047Y-102584285D01*
X162726666Y-102631904D01*
X162774285Y-102727142D01*
X162774285Y-102822380D01*
X162155238Y-103870000D02*
X162107619Y-103965238D01*
X162107619Y-104155714D01*
X162155238Y-104250952D01*
X162250476Y-104298571D01*
X162298095Y-104298571D01*
X162393333Y-104250952D01*
X162440952Y-104155714D01*
X162440952Y-104012857D01*
X162488571Y-103917619D01*
X162583809Y-103870000D01*
X162631428Y-103870000D01*
X162726666Y-103917619D01*
X162774285Y-104012857D01*
X162774285Y-104155714D01*
X162726666Y-104250952D01*
X162155238Y-105108095D02*
X162107619Y-105012857D01*
X162107619Y-104822380D01*
X162155238Y-104727142D01*
X162250476Y-104679523D01*
X162631428Y-104679523D01*
X162726666Y-104727142D01*
X162774285Y-104822380D01*
X162774285Y-105012857D01*
X162726666Y-105108095D01*
X162631428Y-105155714D01*
X162536190Y-105155714D01*
X162440952Y-104679523D01*
X162774285Y-105584285D02*
X162107619Y-105584285D01*
X162679047Y-105584285D02*
X162726666Y-105631904D01*
X162774285Y-105727142D01*
X162774285Y-105870000D01*
X162726666Y-105965238D01*
X162631428Y-106012857D01*
X162107619Y-106012857D01*
X162155238Y-106441428D02*
X162107619Y-106536666D01*
X162107619Y-106727142D01*
X162155238Y-106822380D01*
X162250476Y-106870000D01*
X162298095Y-106870000D01*
X162393333Y-106822380D01*
X162440952Y-106727142D01*
X162440952Y-106584285D01*
X162488571Y-106489047D01*
X162583809Y-106441428D01*
X162631428Y-106441428D01*
X162726666Y-106489047D01*
X162774285Y-106584285D01*
X162774285Y-106727142D01*
X162726666Y-106822380D01*
X162107619Y-107441428D02*
X162155238Y-107346190D01*
X162202857Y-107298571D01*
X162298095Y-107250952D01*
X162583809Y-107250952D01*
X162679047Y-107298571D01*
X162726666Y-107346190D01*
X162774285Y-107441428D01*
X162774285Y-107584285D01*
X162726666Y-107679523D01*
X162679047Y-107727142D01*
X162583809Y-107774761D01*
X162298095Y-107774761D01*
X162202857Y-107727142D01*
X162155238Y-107679523D01*
X162107619Y-107584285D01*
X162107619Y-107441428D01*
X162107619Y-108203333D02*
X162774285Y-108203333D01*
X162583809Y-108203333D02*
X162679047Y-108250952D01*
X162726666Y-108298571D01*
X162774285Y-108393809D01*
X162774285Y-108489047D01*
X162107619Y-109727142D02*
X162155238Y-109631904D01*
X162250476Y-109584285D01*
X163107619Y-109584285D01*
X162155238Y-110489047D02*
X162107619Y-110393809D01*
X162107619Y-110203333D01*
X162155238Y-110108095D01*
X162250476Y-110060476D01*
X162631428Y-110060476D01*
X162726666Y-110108095D01*
X162774285Y-110203333D01*
X162774285Y-110393809D01*
X162726666Y-110489047D01*
X162631428Y-110536666D01*
X162536190Y-110536666D01*
X162440952Y-110060476D01*
X162774285Y-110822380D02*
X162774285Y-111203333D01*
X162107619Y-110965238D02*
X162964761Y-110965238D01*
X163060000Y-111012857D01*
X163107619Y-111108095D01*
X163107619Y-111203333D01*
X162774285Y-111393809D02*
X162774285Y-111774761D01*
X163107619Y-111536666D02*
X162250476Y-111536666D01*
X162155238Y-111584285D01*
X162107619Y-111679523D01*
X162107619Y-111774761D01*
X144280000Y-111108095D02*
X144232380Y-111203333D01*
X144232380Y-111346190D01*
X144280000Y-111489047D01*
X144375238Y-111584285D01*
X144470476Y-111631904D01*
X144660952Y-111679523D01*
X144803809Y-111679523D01*
X144994285Y-111631904D01*
X145089523Y-111584285D01*
X145184761Y-111489047D01*
X145232380Y-111346190D01*
X145232380Y-111250952D01*
X145184761Y-111108095D01*
X145137142Y-111060476D01*
X144803809Y-111060476D01*
X144803809Y-111250952D01*
X145232380Y-110631904D02*
X144232380Y-110631904D01*
X144232380Y-110250952D01*
X144280000Y-110155714D01*
X144327619Y-110108095D01*
X144422857Y-110060476D01*
X144565714Y-110060476D01*
X144660952Y-110108095D01*
X144708571Y-110155714D01*
X144756190Y-110250952D01*
X144756190Y-110631904D01*
X145232380Y-109631904D02*
X144232380Y-109631904D01*
X144232380Y-108965238D02*
X144232380Y-108774761D01*
X144280000Y-108679523D01*
X144375238Y-108584285D01*
X144565714Y-108536666D01*
X144899047Y-108536666D01*
X145089523Y-108584285D01*
X145184761Y-108679523D01*
X145232380Y-108774761D01*
X145232380Y-108965238D01*
X145184761Y-109060476D01*
X145089523Y-109155714D01*
X144899047Y-109203333D01*
X144565714Y-109203333D01*
X144375238Y-109155714D01*
X144280000Y-109060476D01*
X144232380Y-108965238D01*
X144232380Y-107441428D02*
X144232380Y-106822380D01*
X144613333Y-107155714D01*
X144613333Y-107012857D01*
X144660952Y-106917619D01*
X144708571Y-106870000D01*
X144803809Y-106822380D01*
X145041904Y-106822380D01*
X145137142Y-106870000D01*
X145184761Y-106917619D01*
X145232380Y-107012857D01*
X145232380Y-107298571D01*
X145184761Y-107393809D01*
X145137142Y-107441428D01*
X144565714Y-105965238D02*
X145232380Y-105965238D01*
X144184761Y-106203333D02*
X144899047Y-106441428D01*
X144899047Y-105822380D01*
X144565714Y-104822380D02*
X144565714Y-104441428D01*
X145232380Y-104679523D02*
X144375238Y-104679523D01*
X144280000Y-104631904D01*
X144232380Y-104536666D01*
X144232380Y-104441428D01*
X145232380Y-103965238D02*
X145184761Y-104060476D01*
X145137142Y-104108095D01*
X145041904Y-104155714D01*
X144756190Y-104155714D01*
X144660952Y-104108095D01*
X144613333Y-104060476D01*
X144565714Y-103965238D01*
X144565714Y-103822380D01*
X144613333Y-103727142D01*
X144660952Y-103679523D01*
X144756190Y-103631904D01*
X145041904Y-103631904D01*
X145137142Y-103679523D01*
X145184761Y-103727142D01*
X145232380Y-103822380D01*
X145232380Y-103965238D01*
X145232380Y-103203333D02*
X144565714Y-103203333D01*
X144756190Y-103203333D02*
X144660952Y-103155714D01*
X144613333Y-103108095D01*
X144565714Y-103012857D01*
X144565714Y-102917619D01*
X145184761Y-101870000D02*
X145232380Y-101774761D01*
X145232380Y-101584285D01*
X145184761Y-101489047D01*
X145089523Y-101441428D01*
X145041904Y-101441428D01*
X144946666Y-101489047D01*
X144899047Y-101584285D01*
X144899047Y-101727142D01*
X144851428Y-101822380D01*
X144756190Y-101870000D01*
X144708571Y-101870000D01*
X144613333Y-101822380D01*
X144565714Y-101727142D01*
X144565714Y-101584285D01*
X144613333Y-101489047D01*
X145184761Y-100631904D02*
X145232380Y-100727142D01*
X145232380Y-100917619D01*
X145184761Y-101012857D01*
X145089523Y-101060476D01*
X144708571Y-101060476D01*
X144613333Y-101012857D01*
X144565714Y-100917619D01*
X144565714Y-100727142D01*
X144613333Y-100631904D01*
X144708571Y-100584285D01*
X144803809Y-100584285D01*
X144899047Y-101060476D01*
X144565714Y-100155714D02*
X145232380Y-100155714D01*
X144660952Y-100155714D02*
X144613333Y-100108095D01*
X144565714Y-100012857D01*
X144565714Y-99870000D01*
X144613333Y-99774761D01*
X144708571Y-99727142D01*
X145232380Y-99727142D01*
X145184761Y-99298571D02*
X145232380Y-99203333D01*
X145232380Y-99012857D01*
X145184761Y-98917619D01*
X145089523Y-98870000D01*
X145041904Y-98870000D01*
X144946666Y-98917619D01*
X144899047Y-99012857D01*
X144899047Y-99155714D01*
X144851428Y-99250952D01*
X144756190Y-99298571D01*
X144708571Y-99298571D01*
X144613333Y-99250952D01*
X144565714Y-99155714D01*
X144565714Y-99012857D01*
X144613333Y-98917619D01*
X145232380Y-98298571D02*
X145184761Y-98393809D01*
X145137142Y-98441428D01*
X145041904Y-98489047D01*
X144756190Y-98489047D01*
X144660952Y-98441428D01*
X144613333Y-98393809D01*
X144565714Y-98298571D01*
X144565714Y-98155714D01*
X144613333Y-98060476D01*
X144660952Y-98012857D01*
X144756190Y-97965238D01*
X145041904Y-97965238D01*
X145137142Y-98012857D01*
X145184761Y-98060476D01*
X145232380Y-98155714D01*
X145232380Y-98298571D01*
X145232380Y-97536666D02*
X144565714Y-97536666D01*
X144756190Y-97536666D02*
X144660952Y-97489047D01*
X144613333Y-97441428D01*
X144565714Y-97346190D01*
X144565714Y-97250952D01*
X145232380Y-96012857D02*
X145184761Y-96108095D01*
X145089523Y-96155714D01*
X144232380Y-96155714D01*
X145184761Y-95250952D02*
X145232380Y-95346190D01*
X145232380Y-95536666D01*
X145184761Y-95631904D01*
X145089523Y-95679523D01*
X144708571Y-95679523D01*
X144613333Y-95631904D01*
X144565714Y-95536666D01*
X144565714Y-95346190D01*
X144613333Y-95250952D01*
X144708571Y-95203333D01*
X144803809Y-95203333D01*
X144899047Y-95679523D01*
X144565714Y-94917619D02*
X144565714Y-94536666D01*
X145232380Y-94774761D02*
X144375238Y-94774761D01*
X144280000Y-94727142D01*
X144232380Y-94631904D01*
X144232380Y-94536666D01*
X144565714Y-94346190D02*
X144565714Y-93965238D01*
X144232380Y-94203333D02*
X145089523Y-94203333D01*
X145184761Y-94155714D01*
X145232380Y-94060476D01*
X145232380Y-93965238D01*
D12*
X144940238Y-135812380D02*
X145511666Y-135812380D01*
X145225952Y-136812380D02*
X145225952Y-135812380D01*
X146225952Y-136764761D02*
X146130714Y-136812380D01*
X145940238Y-136812380D01*
X145845000Y-136764761D01*
X145797380Y-136669523D01*
X145797380Y-136288571D01*
X145845000Y-136193333D01*
X145940238Y-136145714D01*
X146130714Y-136145714D01*
X146225952Y-136193333D01*
X146273571Y-136288571D01*
X146273571Y-136383809D01*
X145797380Y-136479047D01*
X147130714Y-136812380D02*
X147130714Y-136288571D01*
X147083095Y-136193333D01*
X146987857Y-136145714D01*
X146797380Y-136145714D01*
X146702142Y-136193333D01*
X147130714Y-136764761D02*
X147035476Y-136812380D01*
X146797380Y-136812380D01*
X146702142Y-136764761D01*
X146654523Y-136669523D01*
X146654523Y-136574285D01*
X146702142Y-136479047D01*
X146797380Y-136431428D01*
X147035476Y-136431428D01*
X147130714Y-136383809D01*
X147606904Y-136812380D02*
X147606904Y-136145714D01*
X147606904Y-136240952D02*
X147654523Y-136193333D01*
X147749761Y-136145714D01*
X147892619Y-136145714D01*
X147987857Y-136193333D01*
X148035476Y-136288571D01*
X148035476Y-136812380D01*
X148035476Y-136288571D02*
X148083095Y-136193333D01*
X148178333Y-136145714D01*
X148321190Y-136145714D01*
X148416428Y-136193333D01*
X148464047Y-136288571D01*
X148464047Y-136812380D01*
X149702142Y-136812380D02*
X149702142Y-135812380D01*
X150035476Y-136526666D01*
X150368809Y-135812380D01*
X150368809Y-136812380D01*
X151273571Y-136812380D02*
X151273571Y-136288571D01*
X151225952Y-136193333D01*
X151130714Y-136145714D01*
X150940238Y-136145714D01*
X150845000Y-136193333D01*
X151273571Y-136764761D02*
X151178333Y-136812380D01*
X150940238Y-136812380D01*
X150845000Y-136764761D01*
X150797380Y-136669523D01*
X150797380Y-136574285D01*
X150845000Y-136479047D01*
X150940238Y-136431428D01*
X151178333Y-136431428D01*
X151273571Y-136383809D01*
X151749761Y-136812380D02*
X151749761Y-136145714D01*
X151749761Y-136336190D02*
X151797380Y-136240952D01*
X151845000Y-136193333D01*
X151940238Y-136145714D01*
X152035476Y-136145714D01*
X152225952Y-136145714D02*
X152606904Y-136145714D01*
X152368809Y-135812380D02*
X152368809Y-136669523D01*
X152416428Y-136764761D01*
X152511666Y-136812380D01*
X152606904Y-136812380D01*
X152940238Y-136812380D02*
X152940238Y-136145714D01*
X152940238Y-135812380D02*
X152892619Y-135860000D01*
X152940238Y-135907619D01*
X152987857Y-135860000D01*
X152940238Y-135812380D01*
X152940238Y-135907619D01*
X153416428Y-136145714D02*
X153416428Y-136812380D01*
X153416428Y-136240952D02*
X153464047Y-136193333D01*
X153559285Y-136145714D01*
X153702142Y-136145714D01*
X153797380Y-136193333D01*
X153845000Y-136288571D01*
X153845000Y-136812380D01*
X154321190Y-136812380D02*
X154321190Y-136145714D01*
X154321190Y-135812380D02*
X154273571Y-135860000D01*
X154321190Y-135907619D01*
X154368809Y-135860000D01*
X154321190Y-135812380D01*
X154321190Y-135907619D01*
X145083095Y-138412380D02*
X145083095Y-137412380D01*
X145321190Y-137412380D01*
X145464047Y-137460000D01*
X145559285Y-137555238D01*
X145606904Y-137650476D01*
X145654523Y-137840952D01*
X145654523Y-137983809D01*
X145606904Y-138174285D01*
X145559285Y-138269523D01*
X145464047Y-138364761D01*
X145321190Y-138412380D01*
X145083095Y-138412380D01*
X146464047Y-138364761D02*
X146368809Y-138412380D01*
X146178333Y-138412380D01*
X146083095Y-138364761D01*
X146035476Y-138269523D01*
X146035476Y-137888571D01*
X146083095Y-137793333D01*
X146178333Y-137745714D01*
X146368809Y-137745714D01*
X146464047Y-137793333D01*
X146511666Y-137888571D01*
X146511666Y-137983809D01*
X146035476Y-138079047D01*
X146892619Y-138364761D02*
X146987857Y-138412380D01*
X147178333Y-138412380D01*
X147273571Y-138364761D01*
X147321190Y-138269523D01*
X147321190Y-138221904D01*
X147273571Y-138126666D01*
X147178333Y-138079047D01*
X147035476Y-138079047D01*
X146940238Y-138031428D01*
X146892619Y-137936190D01*
X146892619Y-137888571D01*
X146940238Y-137793333D01*
X147035476Y-137745714D01*
X147178333Y-137745714D01*
X147273571Y-137793333D01*
X147749761Y-138412380D02*
X147749761Y-137745714D01*
X147749761Y-137412380D02*
X147702142Y-137460000D01*
X147749761Y-137507619D01*
X147797380Y-137460000D01*
X147749761Y-137412380D01*
X147749761Y-137507619D01*
X148654523Y-137745714D02*
X148654523Y-138555238D01*
X148606904Y-138650476D01*
X148559285Y-138698095D01*
X148464047Y-138745714D01*
X148321190Y-138745714D01*
X148225952Y-138698095D01*
X148654523Y-138364761D02*
X148559285Y-138412380D01*
X148368809Y-138412380D01*
X148273571Y-138364761D01*
X148225952Y-138317142D01*
X148178333Y-138221904D01*
X148178333Y-137936190D01*
X148225952Y-137840952D01*
X148273571Y-137793333D01*
X148368809Y-137745714D01*
X148559285Y-137745714D01*
X148654523Y-137793333D01*
X149130714Y-137745714D02*
X149130714Y-138412380D01*
X149130714Y-137840952D02*
X149178333Y-137793333D01*
X149273571Y-137745714D01*
X149416428Y-137745714D01*
X149511666Y-137793333D01*
X149559285Y-137888571D01*
X149559285Y-138412380D01*
X150416428Y-138364761D02*
X150321190Y-138412380D01*
X150130714Y-138412380D01*
X150035476Y-138364761D01*
X149987857Y-138269523D01*
X149987857Y-137888571D01*
X150035476Y-137793333D01*
X150130714Y-137745714D01*
X150321190Y-137745714D01*
X150416428Y-137793333D01*
X150464047Y-137888571D01*
X150464047Y-137983809D01*
X149987857Y-138079047D01*
X151321190Y-138412380D02*
X151321190Y-137412380D01*
X151321190Y-138364761D02*
X151225952Y-138412380D01*
X151035476Y-138412380D01*
X150940238Y-138364761D01*
X150892619Y-138317142D01*
X150845000Y-138221904D01*
X150845000Y-137936190D01*
X150892619Y-137840952D01*
X150940238Y-137793333D01*
X151035476Y-137745714D01*
X151225952Y-137745714D01*
X151321190Y-137793333D01*
X152559285Y-138412380D02*
X152559285Y-137412380D01*
X152559285Y-137793333D02*
X152654523Y-137745714D01*
X152845000Y-137745714D01*
X152940238Y-137793333D01*
X152987857Y-137840952D01*
X153035476Y-137936190D01*
X153035476Y-138221904D01*
X152987857Y-138317142D01*
X152940238Y-138364761D01*
X152845000Y-138412380D01*
X152654523Y-138412380D01*
X152559285Y-138364761D01*
X153368809Y-137745714D02*
X153606904Y-138412380D01*
X153845000Y-137745714D02*
X153606904Y-138412380D01*
X153511666Y-138650476D01*
X153464047Y-138698095D01*
X153368809Y-138745714D01*
X155273571Y-137412380D02*
X155273571Y-138126666D01*
X155225952Y-138269523D01*
X155130714Y-138364761D01*
X154987857Y-138412380D01*
X154892619Y-138412380D01*
X156178333Y-137745714D02*
X156178333Y-138412380D01*
X155749761Y-137745714D02*
X155749761Y-138269523D01*
X155797380Y-138364761D01*
X155892619Y-138412380D01*
X156035476Y-138412380D01*
X156130714Y-138364761D01*
X156178333Y-138317142D01*
X156654523Y-137745714D02*
X156654523Y-138412380D01*
X156654523Y-137840952D02*
X156702142Y-137793333D01*
X156797380Y-137745714D01*
X156940238Y-137745714D01*
X157035476Y-137793333D01*
X157083095Y-137888571D01*
X157083095Y-138412380D01*
X157511666Y-138364761D02*
X157654523Y-138412380D01*
X157892619Y-138412380D01*
X157987857Y-138364761D01*
X158035476Y-138317142D01*
X158083095Y-138221904D01*
X158083095Y-138126666D01*
X158035476Y-138031428D01*
X157987857Y-137983809D01*
X157892619Y-137936190D01*
X157702142Y-137888571D01*
X157606904Y-137840952D01*
X157559285Y-137793333D01*
X157511666Y-137698095D01*
X157511666Y-137602857D01*
X157559285Y-137507619D01*
X157606904Y-137460000D01*
X157702142Y-137412380D01*
X157940238Y-137412380D01*
X158083095Y-137460000D01*
X158940238Y-138412380D02*
X158940238Y-137888571D01*
X158892619Y-137793333D01*
X158797380Y-137745714D01*
X158606904Y-137745714D01*
X158511666Y-137793333D01*
X158940238Y-138364761D02*
X158845000Y-138412380D01*
X158606904Y-138412380D01*
X158511666Y-138364761D01*
X158464047Y-138269523D01*
X158464047Y-138174285D01*
X158511666Y-138079047D01*
X158606904Y-138031428D01*
X158845000Y-138031428D01*
X158940238Y-137983809D01*
X159416428Y-137745714D02*
X159416428Y-138412380D01*
X159416428Y-137840952D02*
X159464047Y-137793333D01*
X159559285Y-137745714D01*
X159702142Y-137745714D01*
X159797380Y-137793333D01*
X159845000Y-137888571D01*
X159845000Y-138412380D01*
X160749761Y-137745714D02*
X160749761Y-138555238D01*
X160702142Y-138650476D01*
X160654523Y-138698095D01*
X160559285Y-138745714D01*
X160416428Y-138745714D01*
X160321190Y-138698095D01*
X160749761Y-138364761D02*
X160654523Y-138412380D01*
X160464047Y-138412380D01*
X160368809Y-138364761D01*
X160321190Y-138317142D01*
X160273571Y-138221904D01*
X160273571Y-137936190D01*
X160321190Y-137840952D01*
X160368809Y-137793333D01*
X160464047Y-137745714D01*
X160654523Y-137745714D01*
X160749761Y-137793333D01*
X162464047Y-138412380D02*
X161987857Y-138412380D01*
X161987857Y-137412380D01*
X163178333Y-138364761D02*
X163083095Y-138412380D01*
X162892619Y-138412380D01*
X162797380Y-138364761D01*
X162749761Y-138269523D01*
X162749761Y-137888571D01*
X162797380Y-137793333D01*
X162892619Y-137745714D01*
X163083095Y-137745714D01*
X163178333Y-137793333D01*
X163225952Y-137888571D01*
X163225952Y-137983809D01*
X162749761Y-138079047D01*
X164035476Y-138364761D02*
X163940238Y-138412380D01*
X163749761Y-138412380D01*
X163654523Y-138364761D01*
X163606904Y-138269523D01*
X163606904Y-137888571D01*
X163654523Y-137793333D01*
X163749761Y-137745714D01*
X163940238Y-137745714D01*
X164035476Y-137793333D01*
X164083095Y-137888571D01*
X164083095Y-137983809D01*
X163606904Y-138079047D01*
D13*
%TO.C,U1*%
X139360001Y-130875001D02*
X139360001Y-76475001D01*
X139360001Y-76475001D02*
X167260001Y-76475001D01*
X167260001Y-76475001D02*
X167260001Y-130875001D01*
X167260001Y-130875001D02*
X139360001Y-130875001D01*
D14*
%TO.C,C1*%
X127060354Y-121085000D02*
X127060354Y-122085000D01*
X126560354Y-121585000D02*
X127560354Y-121585000D01*
X137121000Y-123861000D02*
X137121000Y-125059000D01*
X137081000Y-123598000D02*
X137081000Y-125322000D01*
X137041000Y-123398000D02*
X137041000Y-125522000D01*
X137001000Y-123230000D02*
X137001000Y-125690000D01*
X136961000Y-123082000D02*
X136961000Y-125838000D01*
X136921000Y-122950000D02*
X136921000Y-125970000D01*
X136881000Y-122830000D02*
X136881000Y-126090000D01*
X136841000Y-122718000D02*
X136841000Y-126202000D01*
X136801000Y-122614000D02*
X136801000Y-126306000D01*
X136761000Y-122516000D02*
X136761000Y-126404000D01*
X136721000Y-122423000D02*
X136721000Y-126497000D01*
X136681000Y-122335000D02*
X136681000Y-126585000D01*
X136641000Y-122251000D02*
X136641000Y-126669000D01*
X136601000Y-122171000D02*
X136601000Y-126749000D01*
X136561000Y-122095000D02*
X136561000Y-126825000D01*
X136521000Y-122021000D02*
X136521000Y-126899000D01*
X136481000Y-121950000D02*
X136481000Y-126970000D01*
X136441000Y-121881000D02*
X136441000Y-127039000D01*
X136401000Y-121815000D02*
X136401000Y-127105000D01*
X136361000Y-121751000D02*
X136361000Y-127169000D01*
X136321000Y-121690000D02*
X136321000Y-127230000D01*
X136281000Y-121630000D02*
X136281000Y-127290000D01*
X136241000Y-121571000D02*
X136241000Y-127349000D01*
X136201000Y-121515000D02*
X136201000Y-127405000D01*
X136161000Y-121460000D02*
X136161000Y-127460000D01*
X136121000Y-121406000D02*
X136121000Y-127514000D01*
X136081000Y-121354000D02*
X136081000Y-127566000D01*
X136041000Y-121304000D02*
X136041000Y-127616000D01*
X136001000Y-121254000D02*
X136001000Y-127666000D01*
X135961000Y-121206000D02*
X135961000Y-127714000D01*
X135921000Y-121159000D02*
X135921000Y-127761000D01*
X135881000Y-121113000D02*
X135881000Y-127807000D01*
X135841000Y-121068000D02*
X135841000Y-127852000D01*
X135801000Y-121024000D02*
X135801000Y-127896000D01*
X135761000Y-125701000D02*
X135761000Y-127938000D01*
X135761000Y-120982000D02*
X135761000Y-123219000D01*
X135721000Y-125701000D02*
X135721000Y-127980000D01*
X135721000Y-120940000D02*
X135721000Y-123219000D01*
X135681000Y-125701000D02*
X135681000Y-128021000D01*
X135681000Y-120899000D02*
X135681000Y-123219000D01*
X135641000Y-125701000D02*
X135641000Y-128061000D01*
X135641000Y-120859000D02*
X135641000Y-123219000D01*
X135601000Y-125701000D02*
X135601000Y-128100000D01*
X135601000Y-120820000D02*
X135601000Y-123219000D01*
X135561000Y-125701000D02*
X135561000Y-128139000D01*
X135561000Y-120781000D02*
X135561000Y-123219000D01*
X135521000Y-125701000D02*
X135521000Y-128176000D01*
X135521000Y-120744000D02*
X135521000Y-123219000D01*
X135481000Y-125701000D02*
X135481000Y-128213000D01*
X135481000Y-120707000D02*
X135481000Y-123219000D01*
X135441000Y-125701000D02*
X135441000Y-128249000D01*
X135441000Y-120671000D02*
X135441000Y-123219000D01*
X135401000Y-125701000D02*
X135401000Y-128284000D01*
X135401000Y-120636000D02*
X135401000Y-123219000D01*
X135361000Y-125701000D02*
X135361000Y-128318000D01*
X135361000Y-120602000D02*
X135361000Y-123219000D01*
X135321000Y-125701000D02*
X135321000Y-128352000D01*
X135321000Y-120568000D02*
X135321000Y-123219000D01*
X135281000Y-125701000D02*
X135281000Y-128385000D01*
X135281000Y-120535000D02*
X135281000Y-123219000D01*
X135241000Y-125701000D02*
X135241000Y-128417000D01*
X135241000Y-120503000D02*
X135241000Y-123219000D01*
X135201000Y-125701000D02*
X135201000Y-128449000D01*
X135201000Y-120471000D02*
X135201000Y-123219000D01*
X135161000Y-125701000D02*
X135161000Y-128480000D01*
X135161000Y-120440000D02*
X135161000Y-123219000D01*
X135121000Y-125701000D02*
X135121000Y-128510000D01*
X135121000Y-120410000D02*
X135121000Y-123219000D01*
X135081000Y-125701000D02*
X135081000Y-128540000D01*
X135081000Y-120380000D02*
X135081000Y-123219000D01*
X135041000Y-125701000D02*
X135041000Y-128570000D01*
X135041000Y-120350000D02*
X135041000Y-123219000D01*
X135001000Y-125701000D02*
X135001000Y-128598000D01*
X135001000Y-120322000D02*
X135001000Y-123219000D01*
X134961000Y-125701000D02*
X134961000Y-128626000D01*
X134961000Y-120294000D02*
X134961000Y-123219000D01*
X134921000Y-125701000D02*
X134921000Y-128654000D01*
X134921000Y-120266000D02*
X134921000Y-123219000D01*
X134881000Y-125701000D02*
X134881000Y-128681000D01*
X134881000Y-120239000D02*
X134881000Y-123219000D01*
X134841000Y-125701000D02*
X134841000Y-128707000D01*
X134841000Y-120213000D02*
X134841000Y-123219000D01*
X134801000Y-125701000D02*
X134801000Y-128733000D01*
X134801000Y-120187000D02*
X134801000Y-123219000D01*
X134761000Y-125701000D02*
X134761000Y-128758000D01*
X134761000Y-120162000D02*
X134761000Y-123219000D01*
X134721000Y-125701000D02*
X134721000Y-128783000D01*
X134721000Y-120137000D02*
X134721000Y-123219000D01*
X134681000Y-125701000D02*
X134681000Y-128807000D01*
X134681000Y-120113000D02*
X134681000Y-123219000D01*
X134641000Y-125701000D02*
X134641000Y-128831000D01*
X134641000Y-120089000D02*
X134641000Y-123219000D01*
X134601000Y-125701000D02*
X134601000Y-128855000D01*
X134601000Y-120065000D02*
X134601000Y-123219000D01*
X134561000Y-125701000D02*
X134561000Y-128877000D01*
X134561000Y-120043000D02*
X134561000Y-123219000D01*
X134521000Y-125701000D02*
X134521000Y-128900000D01*
X134521000Y-120020000D02*
X134521000Y-123219000D01*
X134481000Y-125701000D02*
X134481000Y-128922000D01*
X134481000Y-119998000D02*
X134481000Y-123219000D01*
X134441000Y-125701000D02*
X134441000Y-128943000D01*
X134441000Y-119977000D02*
X134441000Y-123219000D01*
X134401000Y-125701000D02*
X134401000Y-128964000D01*
X134401000Y-119956000D02*
X134401000Y-123219000D01*
X134361000Y-125701000D02*
X134361000Y-128985000D01*
X134361000Y-119935000D02*
X134361000Y-123219000D01*
X134321000Y-125701000D02*
X134321000Y-129005000D01*
X134321000Y-119915000D02*
X134321000Y-123219000D01*
X134281000Y-125701000D02*
X134281000Y-129024000D01*
X134281000Y-119896000D02*
X134281000Y-123219000D01*
X134241000Y-125701000D02*
X134241000Y-129044000D01*
X134241000Y-119876000D02*
X134241000Y-123219000D01*
X134201000Y-125701000D02*
X134201000Y-129063000D01*
X134201000Y-119857000D02*
X134201000Y-123219000D01*
X134161000Y-125701000D02*
X134161000Y-129081000D01*
X134161000Y-119839000D02*
X134161000Y-123219000D01*
X134121000Y-125701000D02*
X134121000Y-129099000D01*
X134121000Y-119821000D02*
X134121000Y-123219000D01*
X134081000Y-125701000D02*
X134081000Y-129117000D01*
X134081000Y-119803000D02*
X134081000Y-123219000D01*
X134041000Y-125701000D02*
X134041000Y-129134000D01*
X134041000Y-119786000D02*
X134041000Y-123219000D01*
X134001000Y-125701000D02*
X134001000Y-129150000D01*
X134001000Y-119770000D02*
X134001000Y-123219000D01*
X133961000Y-125701000D02*
X133961000Y-129167000D01*
X133961000Y-119753000D02*
X133961000Y-123219000D01*
X133921000Y-125701000D02*
X133921000Y-129183000D01*
X133921000Y-119737000D02*
X133921000Y-123219000D01*
X133881000Y-125701000D02*
X133881000Y-129198000D01*
X133881000Y-119722000D02*
X133881000Y-123219000D01*
X133841000Y-125701000D02*
X133841000Y-129214000D01*
X133841000Y-119706000D02*
X133841000Y-123219000D01*
X133801000Y-125701000D02*
X133801000Y-129228000D01*
X133801000Y-119692000D02*
X133801000Y-123219000D01*
X133761000Y-125701000D02*
X133761000Y-129243000D01*
X133761000Y-119677000D02*
X133761000Y-123219000D01*
X133721000Y-125701000D02*
X133721000Y-129257000D01*
X133721000Y-119663000D02*
X133721000Y-123219000D01*
X133681000Y-125701000D02*
X133681000Y-129271000D01*
X133681000Y-119649000D02*
X133681000Y-123219000D01*
X133641000Y-125701000D02*
X133641000Y-129284000D01*
X133641000Y-119636000D02*
X133641000Y-123219000D01*
X133601000Y-125701000D02*
X133601000Y-129297000D01*
X133601000Y-119623000D02*
X133601000Y-123219000D01*
X133561000Y-125701000D02*
X133561000Y-129310000D01*
X133561000Y-119610000D02*
X133561000Y-123219000D01*
X133521000Y-125701000D02*
X133521000Y-129322000D01*
X133521000Y-119598000D02*
X133521000Y-123219000D01*
X133481000Y-125701000D02*
X133481000Y-129334000D01*
X133481000Y-119586000D02*
X133481000Y-123219000D01*
X133441000Y-125701000D02*
X133441000Y-129345000D01*
X133441000Y-119575000D02*
X133441000Y-123219000D01*
X133401000Y-125701000D02*
X133401000Y-129357000D01*
X133401000Y-119563000D02*
X133401000Y-123219000D01*
X133361000Y-125701000D02*
X133361000Y-129367000D01*
X133361000Y-119553000D02*
X133361000Y-123219000D01*
X133321000Y-125701000D02*
X133321000Y-129378000D01*
X133321000Y-119542000D02*
X133321000Y-123219000D01*
X133281000Y-119532000D02*
X133281000Y-129388000D01*
X133241000Y-119522000D02*
X133241000Y-129398000D01*
X133201000Y-119513000D02*
X133201000Y-129407000D01*
X133161000Y-119504000D02*
X133161000Y-129416000D01*
X133121000Y-119495000D02*
X133121000Y-129425000D01*
X133081000Y-119486000D02*
X133081000Y-129434000D01*
X133041000Y-119478000D02*
X133041000Y-129442000D01*
X133001000Y-119470000D02*
X133001000Y-129450000D01*
X132961000Y-119463000D02*
X132961000Y-129457000D01*
X132921000Y-119456000D02*
X132921000Y-129464000D01*
X132881000Y-119449000D02*
X132881000Y-129471000D01*
X132841000Y-119442000D02*
X132841000Y-129478000D01*
X132801000Y-119436000D02*
X132801000Y-129484000D01*
X132761000Y-119430000D02*
X132761000Y-129490000D01*
X132720000Y-119425000D02*
X132720000Y-129495000D01*
X132680000Y-119420000D02*
X132680000Y-129500000D01*
X132640000Y-119415000D02*
X132640000Y-129505000D01*
X132600000Y-119410000D02*
X132600000Y-129510000D01*
X132560000Y-119406000D02*
X132560000Y-129514000D01*
X132520000Y-119402000D02*
X132520000Y-129518000D01*
X132480000Y-119398000D02*
X132480000Y-129522000D01*
X132440000Y-119395000D02*
X132440000Y-129525000D01*
X132400000Y-119392000D02*
X132400000Y-129528000D01*
X132360000Y-119390000D02*
X132360000Y-129530000D01*
X132320000Y-119387000D02*
X132320000Y-129533000D01*
X132280000Y-119385000D02*
X132280000Y-129535000D01*
X132240000Y-119383000D02*
X132240000Y-129537000D01*
X132200000Y-119382000D02*
X132200000Y-129538000D01*
X132160000Y-119381000D02*
X132160000Y-129539000D01*
X132120000Y-119380000D02*
X132120000Y-129540000D01*
X132080000Y-119380000D02*
X132080000Y-129540000D01*
X132040000Y-119380000D02*
X132040000Y-129540000D01*
X137160000Y-124460000D02*
G75*
G03*
X137160000Y-124460000I-5120000J0D01*
G01*
%TO.C,IR1*%
X129540000Y-111760000D02*
X129540000Y-110490000D01*
X130810000Y-111760000D02*
X129540000Y-111760000D01*
X136270000Y-109447071D02*
X136270000Y-109050000D01*
X135510000Y-109447071D02*
X135510000Y-109050000D01*
X136270000Y-100390000D02*
X136270000Y-106390000D01*
X135510000Y-100390000D02*
X136270000Y-100390000D01*
X135510000Y-106390000D02*
X135510000Y-100390000D01*
X134620000Y-109050000D02*
X134620000Y-106390000D01*
X133730000Y-109447071D02*
X133730000Y-109050000D01*
X132970000Y-109447071D02*
X132970000Y-109050000D01*
X133730000Y-100390000D02*
X133730000Y-106390000D01*
X132970000Y-100390000D02*
X133730000Y-100390000D01*
X132970000Y-106390000D02*
X132970000Y-100390000D01*
X132080000Y-109050000D02*
X132080000Y-106390000D01*
X131190000Y-109380000D02*
X131190000Y-109050000D01*
X130430000Y-109380000D02*
X130430000Y-109050000D01*
X131090000Y-106390000D02*
X131090000Y-100390000D01*
X130970000Y-106390000D02*
X130970000Y-100390000D01*
X130850000Y-106390000D02*
X130850000Y-100390000D01*
X130730000Y-106390000D02*
X130730000Y-100390000D01*
X130610000Y-106390000D02*
X130610000Y-100390000D01*
X130490000Y-106390000D02*
X130490000Y-100390000D01*
X131190000Y-100390000D02*
X131190000Y-106390000D01*
X130430000Y-100390000D02*
X131190000Y-100390000D01*
X130430000Y-106390000D02*
X130430000Y-100390000D01*
X129480000Y-106390000D02*
X129480000Y-109050000D01*
X137220000Y-106390000D02*
X129480000Y-106390000D01*
X137220000Y-109050000D02*
X137220000Y-106390000D01*
X129480000Y-109050000D02*
X137220000Y-109050000D01*
%TO.C,IR2*%
X170120000Y-109050000D02*
X177860000Y-109050000D01*
X177860000Y-109050000D02*
X177860000Y-106390000D01*
X177860000Y-106390000D02*
X170120000Y-106390000D01*
X170120000Y-106390000D02*
X170120000Y-109050000D01*
X171070000Y-106390000D02*
X171070000Y-100390000D01*
X171070000Y-100390000D02*
X171830000Y-100390000D01*
X171830000Y-100390000D02*
X171830000Y-106390000D01*
X171130000Y-106390000D02*
X171130000Y-100390000D01*
X171250000Y-106390000D02*
X171250000Y-100390000D01*
X171370000Y-106390000D02*
X171370000Y-100390000D01*
X171490000Y-106390000D02*
X171490000Y-100390000D01*
X171610000Y-106390000D02*
X171610000Y-100390000D01*
X171730000Y-106390000D02*
X171730000Y-100390000D01*
X171070000Y-109380000D02*
X171070000Y-109050000D01*
X171830000Y-109380000D02*
X171830000Y-109050000D01*
X172720000Y-109050000D02*
X172720000Y-106390000D01*
X173610000Y-106390000D02*
X173610000Y-100390000D01*
X173610000Y-100390000D02*
X174370000Y-100390000D01*
X174370000Y-100390000D02*
X174370000Y-106390000D01*
X173610000Y-109447071D02*
X173610000Y-109050000D01*
X174370000Y-109447071D02*
X174370000Y-109050000D01*
X175260000Y-109050000D02*
X175260000Y-106390000D01*
X176150000Y-106390000D02*
X176150000Y-100390000D01*
X176150000Y-100390000D02*
X176910000Y-100390000D01*
X176910000Y-100390000D02*
X176910000Y-106390000D01*
X176150000Y-109447071D02*
X176150000Y-109050000D01*
X176910000Y-109447071D02*
X176910000Y-109050000D01*
X171450000Y-111760000D02*
X170180000Y-111760000D01*
X170180000Y-111760000D02*
X170180000Y-110490000D01*
%TD*%
%TO.C,REF\u002A\u002A*%
D15*
X126936666Y-132142380D02*
X126603333Y-131666190D01*
X126365238Y-132142380D02*
X126365238Y-131142380D01*
X126746190Y-131142380D01*
X126841428Y-131190000D01*
X126889047Y-131237619D01*
X126936666Y-131332857D01*
X126936666Y-131475714D01*
X126889047Y-131570952D01*
X126841428Y-131618571D01*
X126746190Y-131666190D01*
X126365238Y-131666190D01*
X127365238Y-131618571D02*
X127698571Y-131618571D01*
X127841428Y-132142380D02*
X127365238Y-132142380D01*
X127365238Y-131142380D01*
X127841428Y-131142380D01*
X128603333Y-131618571D02*
X128270000Y-131618571D01*
X128270000Y-132142380D02*
X128270000Y-131142380D01*
X128746190Y-131142380D01*
X129270000Y-131142380D02*
X129270000Y-131380476D01*
X129031904Y-131285238D02*
X129270000Y-131380476D01*
X129508095Y-131285238D01*
X129127142Y-131570952D02*
X129270000Y-131380476D01*
X129412857Y-131570952D01*
X130031904Y-131142380D02*
X130031904Y-131380476D01*
X129793809Y-131285238D02*
X130031904Y-131380476D01*
X130270000Y-131285238D01*
X129889047Y-131570952D02*
X130031904Y-131380476D01*
X130174761Y-131570952D01*
X175196666Y-132142380D02*
X174863333Y-131666190D01*
X174625238Y-132142380D02*
X174625238Y-131142380D01*
X175006190Y-131142380D01*
X175101428Y-131190000D01*
X175149047Y-131237619D01*
X175196666Y-131332857D01*
X175196666Y-131475714D01*
X175149047Y-131570952D01*
X175101428Y-131618571D01*
X175006190Y-131666190D01*
X174625238Y-131666190D01*
X175625238Y-131618571D02*
X175958571Y-131618571D01*
X176101428Y-132142380D02*
X175625238Y-132142380D01*
X175625238Y-131142380D01*
X176101428Y-131142380D01*
X176863333Y-131618571D02*
X176530000Y-131618571D01*
X176530000Y-132142380D02*
X176530000Y-131142380D01*
X177006190Y-131142380D01*
X177530000Y-131142380D02*
X177530000Y-131380476D01*
X177291904Y-131285238D02*
X177530000Y-131380476D01*
X177768095Y-131285238D01*
X177387142Y-131570952D02*
X177530000Y-131380476D01*
X177672857Y-131570952D01*
X178291904Y-131142380D02*
X178291904Y-131380476D01*
X178053809Y-131285238D02*
X178291904Y-131380476D01*
X178530000Y-131285238D01*
X178149047Y-131570952D02*
X178291904Y-131380476D01*
X178434761Y-131570952D01*
X126936666Y-73722380D02*
X126603333Y-73246190D01*
X126365238Y-73722380D02*
X126365238Y-72722380D01*
X126746190Y-72722380D01*
X126841428Y-72770000D01*
X126889047Y-72817619D01*
X126936666Y-72912857D01*
X126936666Y-73055714D01*
X126889047Y-73150952D01*
X126841428Y-73198571D01*
X126746190Y-73246190D01*
X126365238Y-73246190D01*
X127365238Y-73198571D02*
X127698571Y-73198571D01*
X127841428Y-73722380D02*
X127365238Y-73722380D01*
X127365238Y-72722380D01*
X127841428Y-72722380D01*
X128603333Y-73198571D02*
X128270000Y-73198571D01*
X128270000Y-73722380D02*
X128270000Y-72722380D01*
X128746190Y-72722380D01*
X129270000Y-72722380D02*
X129270000Y-72960476D01*
X129031904Y-72865238D02*
X129270000Y-72960476D01*
X129508095Y-72865238D01*
X129127142Y-73150952D02*
X129270000Y-72960476D01*
X129412857Y-73150952D01*
X130031904Y-72722380D02*
X130031904Y-72960476D01*
X129793809Y-72865238D02*
X130031904Y-72960476D01*
X130270000Y-72865238D01*
X129889047Y-73150952D02*
X130031904Y-72960476D01*
X130174761Y-73150952D01*
X175196666Y-73722380D02*
X174863333Y-73246190D01*
X174625238Y-73722380D02*
X174625238Y-72722380D01*
X175006190Y-72722380D01*
X175101428Y-72770000D01*
X175149047Y-72817619D01*
X175196666Y-72912857D01*
X175196666Y-73055714D01*
X175149047Y-73150952D01*
X175101428Y-73198571D01*
X175006190Y-73246190D01*
X174625238Y-73246190D01*
X175625238Y-73198571D02*
X175958571Y-73198571D01*
X176101428Y-73722380D02*
X175625238Y-73722380D01*
X175625238Y-72722380D01*
X176101428Y-72722380D01*
X176863333Y-73198571D02*
X176530000Y-73198571D01*
X176530000Y-73722380D02*
X176530000Y-72722380D01*
X177006190Y-72722380D01*
X177530000Y-72722380D02*
X177530000Y-72960476D01*
X177291904Y-72865238D02*
X177530000Y-72960476D01*
X177768095Y-72865238D01*
X177387142Y-73150952D02*
X177530000Y-72960476D01*
X177672857Y-73150952D01*
X178291904Y-72722380D02*
X178291904Y-72960476D01*
X178053809Y-72865238D02*
X178291904Y-72960476D01*
X178530000Y-72865238D01*
X178149047Y-73150952D02*
X178291904Y-72960476D01*
X178434761Y-73150952D01*
%TO.C,U1*%
D16*
X141718627Y-74631125D02*
X141718627Y-75440961D01*
X141766264Y-75536236D01*
X141813902Y-75583874D01*
X141909176Y-75631511D01*
X142099726Y-75631511D01*
X142195001Y-75583874D01*
X142242638Y-75536236D01*
X142290276Y-75440961D01*
X142290276Y-74631125D01*
X143290662Y-75631511D02*
X142719013Y-75631511D01*
X143004837Y-75631511D02*
X143004837Y-74631125D01*
X142909562Y-74774037D01*
X142814288Y-74869312D01*
X142719013Y-74916950D01*
%TO.C,C1*%
D15*
X131873333Y-118567142D02*
X131825714Y-118614761D01*
X131682857Y-118662380D01*
X131587619Y-118662380D01*
X131444761Y-118614761D01*
X131349523Y-118519523D01*
X131301904Y-118424285D01*
X131254285Y-118233809D01*
X131254285Y-118090952D01*
X131301904Y-117900476D01*
X131349523Y-117805238D01*
X131444761Y-117710000D01*
X131587619Y-117662380D01*
X131682857Y-117662380D01*
X131825714Y-117710000D01*
X131873333Y-117757619D01*
X132825714Y-118662380D02*
X132254285Y-118662380D01*
X132540000Y-118662380D02*
X132540000Y-117662380D01*
X132444761Y-117805238D01*
X132349523Y-117900476D01*
X132254285Y-117948095D01*
%TO.C,IR1*%
X128992380Y-107081190D02*
X127992380Y-107081190D01*
X128992380Y-106033571D02*
X128516190Y-106366904D01*
X128992380Y-106605000D02*
X127992380Y-106605000D01*
X127992380Y-106224047D01*
X128040000Y-106128809D01*
X128087619Y-106081190D01*
X128182857Y-106033571D01*
X128325714Y-106033571D01*
X128420952Y-106081190D01*
X128468571Y-106128809D01*
X128516190Y-106224047D01*
X128516190Y-106605000D01*
X128992380Y-105081190D02*
X128992380Y-105652619D01*
X128992380Y-105366904D02*
X127992380Y-105366904D01*
X128135238Y-105462142D01*
X128230476Y-105557380D01*
X128278095Y-105652619D01*
%TO.C,IR2*%
X169632380Y-107081190D02*
X168632380Y-107081190D01*
X169632380Y-106033571D02*
X169156190Y-106366904D01*
X169632380Y-106605000D02*
X168632380Y-106605000D01*
X168632380Y-106224047D01*
X168680000Y-106128809D01*
X168727619Y-106081190D01*
X168822857Y-106033571D01*
X168965714Y-106033571D01*
X169060952Y-106081190D01*
X169108571Y-106128809D01*
X169156190Y-106224047D01*
X169156190Y-106605000D01*
X168727619Y-105652619D02*
X168680000Y-105605000D01*
X168632380Y-105509761D01*
X168632380Y-105271666D01*
X168680000Y-105176428D01*
X168727619Y-105128809D01*
X168822857Y-105081190D01*
X168918095Y-105081190D01*
X169060952Y-105128809D01*
X169632380Y-105700238D01*
X169632380Y-105081190D01*
%TD*%
M02*
