%TF.GenerationSoftware,KiCad,Pcbnew,(5.1.9)-1*%
%TF.CreationDate,2021-05-26T20:45:15+09:00*%
%TF.ProjectId,esp32_nodemcu,65737033-325f-46e6-9f64-656d63752e6b,rev?*%
%TF.SameCoordinates,Original*%
%TF.FileFunction,Copper,L1,Top*%
%TF.FilePolarity,Positive*%
%FSLAX46Y46*%
G04 Gerber Fmt 4.6, Leading zero omitted, Abs format (unit mm)*
G04 Created by KiCad (PCBNEW (5.1.9)-1) date 2021-05-26 20:45:15*
%MOMM*%
%LPD*%
G01*
G04 APERTURE LIST*
%TA.AperFunction,Profile*%
%ADD10C,0.050000*%
%TD*%
%TA.AperFunction,ComponentPad*%
%ADD11R,1.560000X1.560000*%
%TD*%
%TA.AperFunction,ComponentPad*%
%ADD12C,1.560000*%
%TD*%
%TA.AperFunction,ComponentPad*%
%ADD13R,2.000000X2.000000*%
%TD*%
%TA.AperFunction,ComponentPad*%
%ADD14C,2.000000*%
%TD*%
%TA.AperFunction,ComponentPad*%
%ADD15R,1.700000X1.700000*%
%TD*%
%TA.AperFunction,ComponentPad*%
%ADD16O,1.700000X1.700000*%
%TD*%
%TA.AperFunction,Conductor*%
%ADD17C,0.250000*%
%TD*%
G04 APERTURE END LIST*
D10*
X190500000Y-58420000D02*
X190500000Y-133350000D01*
X124460000Y-58420000D02*
X190500000Y-58420000D01*
X124460000Y-133350000D02*
X124460000Y-58420000D01*
X190500000Y-133350000D02*
X124460000Y-133350000D01*
D11*
%TO.P,U1,1*%
%TO.N,Net-(IR1-Pad1)*%
X144780000Y-75490000D03*
D12*
%TO.P,U1,2*%
%TO.N,Net-(C1-Pad1)*%
X144780000Y-78030000D03*
%TO.P,U1,19*%
%TO.N,Net-(U1-Pad19)*%
X144780000Y-121210000D03*
%TO.P,U1,3*%
%TO.N,Net-(U1-Pad3)*%
X144780000Y-80570000D03*
%TO.P,U1,4*%
%TO.N,Net-(U1-Pad4)*%
X144780000Y-83110000D03*
%TO.P,U1,5*%
%TO.N,Net-(IR1-Pad3)*%
X144780000Y-85650000D03*
%TO.P,U1,6*%
%TO.N,Net-(U1-Pad6)*%
X144780000Y-88190000D03*
%TO.P,U1,7*%
%TO.N,Net-(U1-Pad7)*%
X144780000Y-90730000D03*
%TO.P,U1,8*%
%TO.N,Net-(U1-Pad8)*%
X144780000Y-93270000D03*
%TO.P,U1,9*%
%TO.N,Net-(U1-Pad9)*%
X144780000Y-95810000D03*
%TO.P,U1,10*%
%TO.N,Net-(U1-Pad10)*%
X144780000Y-98350000D03*
%TO.P,U1,11*%
%TO.N,Net-(U1-Pad11)*%
X144780000Y-100890000D03*
%TO.P,U1,12*%
%TO.N,Net-(U1-Pad12)*%
X144780000Y-103430000D03*
%TO.P,U1,13*%
%TO.N,Net-(U1-Pad13)*%
X144780000Y-105970000D03*
%TO.P,U1,14*%
%TO.N,Net-(C1-Pad2)*%
X144780000Y-108510000D03*
%TO.P,U1,15*%
%TO.N,Net-(U1-Pad15)*%
X144780000Y-111050000D03*
%TO.P,U1,16*%
%TO.N,Net-(U1-Pad16)*%
X144780000Y-113590000D03*
%TO.P,U1,17*%
%TO.N,Net-(U1-Pad17)*%
X144780000Y-116130000D03*
%TO.P,U1,18*%
%TO.N,Net-(U1-Pad18)*%
X144780000Y-118670000D03*
%TO.P,U1,20*%
%TO.N,Net-(IR1-Pad2)*%
X170180000Y-75490000D03*
%TO.P,U1,21*%
%TO.N,Net-(U1-Pad21)*%
X170180000Y-78030000D03*
%TO.P,U1,22*%
%TO.N,Net-(IR2-Pad3)*%
X170180000Y-80570000D03*
%TO.P,U1,23*%
%TO.N,Net-(U1-Pad23)*%
X170180000Y-83110000D03*
%TO.P,U1,24*%
%TO.N,Net-(U1-Pad24)*%
X170180000Y-85650000D03*
%TO.P,U1,25*%
%TO.N,Net-(U1-Pad25)*%
X170180000Y-88190000D03*
%TO.P,U1,26*%
%TO.N,Net-(U1-Pad26)*%
X170180000Y-90730000D03*
%TO.P,U1,27*%
%TO.N,Net-(U1-Pad27)*%
X170180000Y-93270000D03*
%TO.P,U1,28*%
%TO.N,Net-(U1-Pad28)*%
X170180000Y-95810000D03*
%TO.P,U1,29*%
%TO.N,Net-(U1-Pad29)*%
X170180000Y-98350000D03*
%TO.P,U1,30*%
%TO.N,Net-(U1-Pad30)*%
X170180000Y-100890000D03*
%TO.P,U1,31*%
%TO.N,Net-(U1-Pad31)*%
X170180000Y-103430000D03*
%TO.P,U1,32*%
%TO.N,Net-(U1-Pad32)*%
X170180000Y-105970000D03*
%TO.P,U1,33*%
%TO.N,Net-(U1-Pad33)*%
X170180000Y-108510000D03*
%TO.P,U1,34*%
%TO.N,Net-(U1-Pad34)*%
X170180000Y-111050000D03*
%TO.P,U1,35*%
%TO.N,Net-(U1-Pad35)*%
X170180000Y-113590000D03*
%TO.P,U1,36*%
%TO.N,Net-(U1-Pad36)*%
X170180000Y-116130000D03*
%TO.P,U1,37*%
%TO.N,Net-(U1-Pad37)*%
X170180000Y-118670000D03*
%TO.P,U1,38*%
%TO.N,Net-(U1-Pad38)*%
X170180000Y-121210000D03*
%TD*%
D13*
%TO.P,C1,1*%
%TO.N,Net-(C1-Pad1)*%
X129540000Y-116840000D03*
D14*
%TO.P,C1,2*%
%TO.N,Net-(C1-Pad2)*%
X134540000Y-116840000D03*
%TD*%
D15*
%TO.P,LEFT,1*%
%TO.N,Net-(IR1-Pad1)*%
X134620000Y-104140000D03*
D16*
%TO.P,LEFT,2*%
%TO.N,Net-(IR1-Pad2)*%
X132080000Y-104140000D03*
%TO.P,LEFT,3*%
%TO.N,Net-(IR1-Pad3)*%
X129540000Y-104140000D03*
%TD*%
%TO.P,RIGHT,3*%
%TO.N,Net-(IR2-Pad3)*%
X180340000Y-104140000D03*
%TO.P,RIGHT,2*%
%TO.N,Net-(IR1-Pad2)*%
X182880000Y-104140000D03*
D15*
%TO.P,RIGHT,1*%
%TO.N,Net-(IR1-Pad1)*%
X185420000Y-104140000D03*
%TD*%
D17*
%TO.N,Net-(C1-Pad1)*%
X129540000Y-116840000D02*
X128364999Y-115664999D01*
%TO.N,Net-(IR1-Pad1)*%
X185420000Y-104140000D02*
X185420000Y-86360000D01*
X145885001Y-74384999D02*
X144780000Y-75490000D01*
X173444999Y-74384999D02*
X145885001Y-74384999D01*
X185420000Y-86360000D02*
X173444999Y-74384999D01*
X144780000Y-75490000D02*
X145340000Y-75490000D01*
X145340000Y-75490000D02*
X146050000Y-76200000D01*
X145310401Y-87084999D02*
X142785001Y-87084999D01*
X146050000Y-86345400D02*
X145310401Y-87084999D01*
X146050000Y-76200000D02*
X146050000Y-86345400D01*
X133444999Y-105315001D02*
X134620000Y-104140000D01*
X131515999Y-105315001D02*
X133444999Y-105315001D01*
X130904999Y-104704001D02*
X131515999Y-105315001D01*
X130904999Y-98965001D02*
X130904999Y-104704001D01*
X142785001Y-87084999D02*
X130904999Y-98965001D01*
%TO.N,Net-(IR1-Pad2)*%
X182880000Y-88190000D02*
X182880000Y-104140000D01*
X170180000Y-75490000D02*
X182880000Y-88190000D01*
X132080000Y-101794598D02*
X132080000Y-104140000D01*
X144579597Y-89295001D02*
X132080000Y-101794598D01*
X156374999Y-89295001D02*
X144579597Y-89295001D01*
X170180000Y-75490000D02*
X156374999Y-89295001D01*
%TO.N,Net-(IR1-Pad3)*%
X144780000Y-85650000D02*
X136600000Y-85650000D01*
X129540000Y-92710000D02*
X129540000Y-104140000D01*
X136600000Y-85650000D02*
X129540000Y-92710000D01*
%TO.N,Net-(IR2-Pad3)*%
X180340000Y-90730000D02*
X180340000Y-104140000D01*
X170180000Y-80570000D02*
X180340000Y-90730000D01*
%TD*%
M02*
