M48
; DRILL file {KiCad (5.1.9)-1} date 05/20/21 15:31:02
; FORMAT={-:-/ absolute / inch / decimal}
; #@! TF.CreationDate,2021-05-20T15:31:02+09:00
; #@! TF.GenerationSoftware,Kicad,Pcbnew,(5.1.9)-1
; #@! TF.FileFunction,Plated,1,2,PTH
FMAT,2
INCH
T1C0.0394
T2C0.0409
T3C0.1260
%
G90
G05
T1
X5.1Y-4.9
X5.15Y-4.35
X5.25Y-4.35
X5.2969Y-4.9
X5.35Y-4.35
X6.75Y-4.35
X6.85Y-4.35
X6.95Y-4.35
T2
X5.5358Y-3.3018
X5.5358Y-3.4018
X5.5358Y-3.5018
X5.5358Y-3.6018
X5.5358Y-3.7018
X5.5358Y-3.8018
X5.5358Y-3.9018
X5.5358Y-4.0018
X5.5358Y-4.1018
X5.5358Y-4.2018
X5.5358Y-4.3018
X5.5358Y-4.4018
X5.5358Y-4.5018
X5.5358Y-4.6018
X5.5358Y-4.7018
X5.5358Y-4.8018
X5.5358Y-4.9018
X5.5358Y-5.0018
X5.5358Y-5.1018
X6.5358Y-3.3018
X6.5358Y-3.4018
X6.5358Y-3.5018
X6.5358Y-3.6018
X6.5358Y-3.7018
X6.5358Y-3.8018
X6.5358Y-3.9018
X6.5358Y-4.0018
X6.5358Y-4.1018
X6.5358Y-4.2018
X6.5358Y-4.3018
X6.5358Y-4.4018
X6.5358Y-4.5018
X6.5358Y-4.6018
X6.5358Y-4.7018
X6.5358Y-4.8018
X6.5358Y-4.9018
X6.5358Y-5.0018
X6.5358Y-5.1018
T3
X5.05Y-3.05
X5.05Y-5.35
X6.95Y-3.05
X6.95Y-5.35
T0
M30
