%TF.GenerationSoftware,KiCad,Pcbnew,(5.1.9)-1*%
%TF.CreationDate,2021-05-26T20:45:15+09:00*%
%TF.ProjectId,esp32_nodemcu,65737033-325f-46e6-9f64-656d63752e6b,rev?*%
%TF.SameCoordinates,Original*%
%TF.FileFunction,Legend,Top*%
%TF.FilePolarity,Positive*%
%FSLAX46Y46*%
G04 Gerber Fmt 4.6, Leading zero omitted, Abs format (unit mm)*
G04 Created by KiCad (PCBNEW (5.1.9)-1) date 2021-05-26 20:45:15*
%MOMM*%
%LPD*%
G01*
G04 APERTURE LIST*
%ADD10C,0.300000*%
%ADD11C,0.100000*%
%TA.AperFunction,Profile*%
%ADD12C,0.050000*%
%TD*%
%ADD13C,0.127000*%
%ADD14C,0.120000*%
%ADD15C,0.015000*%
%ADD16C,0.150000*%
G04 APERTURE END LIST*
D10*
X150337142Y-124903571D02*
X151194285Y-124903571D01*
X150765714Y-126403571D02*
X150765714Y-124903571D01*
X152265714Y-126332142D02*
X152122857Y-126403571D01*
X151837142Y-126403571D01*
X151694285Y-126332142D01*
X151622857Y-126189285D01*
X151622857Y-125617857D01*
X151694285Y-125475000D01*
X151837142Y-125403571D01*
X152122857Y-125403571D01*
X152265714Y-125475000D01*
X152337142Y-125617857D01*
X152337142Y-125760714D01*
X151622857Y-125903571D01*
X153622857Y-126403571D02*
X153622857Y-125617857D01*
X153551428Y-125475000D01*
X153408571Y-125403571D01*
X153122857Y-125403571D01*
X152980000Y-125475000D01*
X153622857Y-126332142D02*
X153480000Y-126403571D01*
X153122857Y-126403571D01*
X152980000Y-126332142D01*
X152908571Y-126189285D01*
X152908571Y-126046428D01*
X152980000Y-125903571D01*
X153122857Y-125832142D01*
X153480000Y-125832142D01*
X153622857Y-125760714D01*
X154337142Y-126403571D02*
X154337142Y-125403571D01*
X154337142Y-125546428D02*
X154408571Y-125475000D01*
X154551428Y-125403571D01*
X154765714Y-125403571D01*
X154908571Y-125475000D01*
X154980000Y-125617857D01*
X154980000Y-126403571D01*
X154980000Y-125617857D02*
X155051428Y-125475000D01*
X155194285Y-125403571D01*
X155408571Y-125403571D01*
X155551428Y-125475000D01*
X155622857Y-125617857D01*
X155622857Y-126403571D01*
X157480000Y-126403571D02*
X157480000Y-124903571D01*
X157980000Y-125975000D01*
X158480000Y-124903571D01*
X158480000Y-126403571D01*
X159837142Y-126403571D02*
X159837142Y-125617857D01*
X159765714Y-125475000D01*
X159622857Y-125403571D01*
X159337142Y-125403571D01*
X159194285Y-125475000D01*
X159837142Y-126332142D02*
X159694285Y-126403571D01*
X159337142Y-126403571D01*
X159194285Y-126332142D01*
X159122857Y-126189285D01*
X159122857Y-126046428D01*
X159194285Y-125903571D01*
X159337142Y-125832142D01*
X159694285Y-125832142D01*
X159837142Y-125760714D01*
X160551428Y-126403571D02*
X160551428Y-125403571D01*
X160551428Y-125689285D02*
X160622857Y-125546428D01*
X160694285Y-125475000D01*
X160837142Y-125403571D01*
X160980000Y-125403571D01*
X161265714Y-125403571D02*
X161837142Y-125403571D01*
X161480000Y-124903571D02*
X161480000Y-126189285D01*
X161551428Y-126332142D01*
X161694285Y-126403571D01*
X161837142Y-126403571D01*
X162337142Y-126403571D02*
X162337142Y-125403571D01*
X162337142Y-124903571D02*
X162265714Y-124975000D01*
X162337142Y-125046428D01*
X162408571Y-124975000D01*
X162337142Y-124903571D01*
X162337142Y-125046428D01*
X163051428Y-125403571D02*
X163051428Y-126403571D01*
X163051428Y-125546428D02*
X163122857Y-125475000D01*
X163265714Y-125403571D01*
X163480000Y-125403571D01*
X163622857Y-125475000D01*
X163694285Y-125617857D01*
X163694285Y-126403571D01*
X164408571Y-126403571D02*
X164408571Y-125403571D01*
X164408571Y-124903571D02*
X164337142Y-124975000D01*
X164408571Y-125046428D01*
X164480000Y-124975000D01*
X164408571Y-124903571D01*
X164408571Y-125046428D01*
X143194285Y-128953571D02*
X143194285Y-127453571D01*
X143551428Y-127453571D01*
X143765714Y-127525000D01*
X143908571Y-127667857D01*
X143980000Y-127810714D01*
X144051428Y-128096428D01*
X144051428Y-128310714D01*
X143980000Y-128596428D01*
X143908571Y-128739285D01*
X143765714Y-128882142D01*
X143551428Y-128953571D01*
X143194285Y-128953571D01*
X145265714Y-128882142D02*
X145122857Y-128953571D01*
X144837142Y-128953571D01*
X144694285Y-128882142D01*
X144622857Y-128739285D01*
X144622857Y-128167857D01*
X144694285Y-128025000D01*
X144837142Y-127953571D01*
X145122857Y-127953571D01*
X145265714Y-128025000D01*
X145337142Y-128167857D01*
X145337142Y-128310714D01*
X144622857Y-128453571D01*
X145908571Y-128882142D02*
X146051428Y-128953571D01*
X146337142Y-128953571D01*
X146480000Y-128882142D01*
X146551428Y-128739285D01*
X146551428Y-128667857D01*
X146480000Y-128525000D01*
X146337142Y-128453571D01*
X146122857Y-128453571D01*
X145980000Y-128382142D01*
X145908571Y-128239285D01*
X145908571Y-128167857D01*
X145980000Y-128025000D01*
X146122857Y-127953571D01*
X146337142Y-127953571D01*
X146480000Y-128025000D01*
X147194285Y-128953571D02*
X147194285Y-127953571D01*
X147194285Y-127453571D02*
X147122857Y-127525000D01*
X147194285Y-127596428D01*
X147265714Y-127525000D01*
X147194285Y-127453571D01*
X147194285Y-127596428D01*
X148551428Y-127953571D02*
X148551428Y-129167857D01*
X148480000Y-129310714D01*
X148408571Y-129382142D01*
X148265714Y-129453571D01*
X148051428Y-129453571D01*
X147908571Y-129382142D01*
X148551428Y-128882142D02*
X148408571Y-128953571D01*
X148122857Y-128953571D01*
X147980000Y-128882142D01*
X147908571Y-128810714D01*
X147837142Y-128667857D01*
X147837142Y-128239285D01*
X147908571Y-128096428D01*
X147980000Y-128025000D01*
X148122857Y-127953571D01*
X148408571Y-127953571D01*
X148551428Y-128025000D01*
X149265714Y-127953571D02*
X149265714Y-128953571D01*
X149265714Y-128096428D02*
X149337142Y-128025000D01*
X149480000Y-127953571D01*
X149694285Y-127953571D01*
X149837142Y-128025000D01*
X149908571Y-128167857D01*
X149908571Y-128953571D01*
X151194285Y-128882142D02*
X151051428Y-128953571D01*
X150765714Y-128953571D01*
X150622857Y-128882142D01*
X150551428Y-128739285D01*
X150551428Y-128167857D01*
X150622857Y-128025000D01*
X150765714Y-127953571D01*
X151051428Y-127953571D01*
X151194285Y-128025000D01*
X151265714Y-128167857D01*
X151265714Y-128310714D01*
X150551428Y-128453571D01*
X152551428Y-128953571D02*
X152551428Y-127453571D01*
X152551428Y-128882142D02*
X152408571Y-128953571D01*
X152122857Y-128953571D01*
X151980000Y-128882142D01*
X151908571Y-128810714D01*
X151837142Y-128667857D01*
X151837142Y-128239285D01*
X151908571Y-128096428D01*
X151980000Y-128025000D01*
X152122857Y-127953571D01*
X152408571Y-127953571D01*
X152551428Y-128025000D01*
X154908571Y-128167857D02*
X155122857Y-128239285D01*
X155194285Y-128310714D01*
X155265714Y-128453571D01*
X155265714Y-128667857D01*
X155194285Y-128810714D01*
X155122857Y-128882142D01*
X154980000Y-128953571D01*
X154408571Y-128953571D01*
X154408571Y-127453571D01*
X154908571Y-127453571D01*
X155051428Y-127525000D01*
X155122857Y-127596428D01*
X155194285Y-127739285D01*
X155194285Y-127882142D01*
X155122857Y-128025000D01*
X155051428Y-128096428D01*
X154908571Y-128167857D01*
X154408571Y-128167857D01*
X155765714Y-127953571D02*
X156122857Y-128953571D01*
X156480000Y-127953571D02*
X156122857Y-128953571D01*
X155980000Y-129310714D01*
X155908571Y-129382142D01*
X155765714Y-129453571D01*
X158622857Y-127453571D02*
X158622857Y-128525000D01*
X158551428Y-128739285D01*
X158408571Y-128882142D01*
X158194285Y-128953571D01*
X158051428Y-128953571D01*
X159980000Y-127953571D02*
X159980000Y-128953571D01*
X159337142Y-127953571D02*
X159337142Y-128739285D01*
X159408571Y-128882142D01*
X159551428Y-128953571D01*
X159765714Y-128953571D01*
X159908571Y-128882142D01*
X159980000Y-128810714D01*
X160694285Y-127953571D02*
X160694285Y-128953571D01*
X160694285Y-128096428D02*
X160765714Y-128025000D01*
X160908571Y-127953571D01*
X161122857Y-127953571D01*
X161265714Y-128025000D01*
X161337142Y-128167857D01*
X161337142Y-128953571D01*
X161980000Y-128882142D02*
X162194285Y-128953571D01*
X162551428Y-128953571D01*
X162694285Y-128882142D01*
X162765714Y-128810714D01*
X162837142Y-128667857D01*
X162837142Y-128525000D01*
X162765714Y-128382142D01*
X162694285Y-128310714D01*
X162551428Y-128239285D01*
X162265714Y-128167857D01*
X162122857Y-128096428D01*
X162051428Y-128025000D01*
X161980000Y-127882142D01*
X161980000Y-127739285D01*
X162051428Y-127596428D01*
X162122857Y-127525000D01*
X162265714Y-127453571D01*
X162622857Y-127453571D01*
X162837142Y-127525000D01*
X164122857Y-128953571D02*
X164122857Y-128167857D01*
X164051428Y-128025000D01*
X163908571Y-127953571D01*
X163622857Y-127953571D01*
X163480000Y-128025000D01*
X164122857Y-128882142D02*
X163980000Y-128953571D01*
X163622857Y-128953571D01*
X163480000Y-128882142D01*
X163408571Y-128739285D01*
X163408571Y-128596428D01*
X163480000Y-128453571D01*
X163622857Y-128382142D01*
X163980000Y-128382142D01*
X164122857Y-128310714D01*
X164837142Y-127953571D02*
X164837142Y-128953571D01*
X164837142Y-128096428D02*
X164908571Y-128025000D01*
X165051428Y-127953571D01*
X165265714Y-127953571D01*
X165408571Y-128025000D01*
X165480000Y-128167857D01*
X165480000Y-128953571D01*
X166837142Y-127953571D02*
X166837142Y-129167857D01*
X166765714Y-129310714D01*
X166694285Y-129382142D01*
X166551428Y-129453571D01*
X166337142Y-129453571D01*
X166194285Y-129382142D01*
X166837142Y-128882142D02*
X166694285Y-128953571D01*
X166408571Y-128953571D01*
X166265714Y-128882142D01*
X166194285Y-128810714D01*
X166122857Y-128667857D01*
X166122857Y-128239285D01*
X166194285Y-128096428D01*
X166265714Y-128025000D01*
X166408571Y-127953571D01*
X166694285Y-127953571D01*
X166837142Y-128025000D01*
X169408571Y-128953571D02*
X168694285Y-128953571D01*
X168694285Y-127453571D01*
X170480000Y-128882142D02*
X170337142Y-128953571D01*
X170051428Y-128953571D01*
X169908571Y-128882142D01*
X169837142Y-128739285D01*
X169837142Y-128167857D01*
X169908571Y-128025000D01*
X170051428Y-127953571D01*
X170337142Y-127953571D01*
X170480000Y-128025000D01*
X170551428Y-128167857D01*
X170551428Y-128310714D01*
X169837142Y-128453571D01*
X171765714Y-128882142D02*
X171622857Y-128953571D01*
X171337142Y-128953571D01*
X171194285Y-128882142D01*
X171122857Y-128739285D01*
X171122857Y-128167857D01*
X171194285Y-128025000D01*
X171337142Y-127953571D01*
X171622857Y-127953571D01*
X171765714Y-128025000D01*
X171837142Y-128167857D01*
X171837142Y-128310714D01*
X171122857Y-128453571D01*
D11*
X148090000Y-98408095D02*
X148042380Y-98503333D01*
X148042380Y-98646190D01*
X148090000Y-98789047D01*
X148185238Y-98884285D01*
X148280476Y-98931904D01*
X148470952Y-98979523D01*
X148613809Y-98979523D01*
X148804285Y-98931904D01*
X148899523Y-98884285D01*
X148994761Y-98789047D01*
X149042380Y-98646190D01*
X149042380Y-98550952D01*
X148994761Y-98408095D01*
X148947142Y-98360476D01*
X148613809Y-98360476D01*
X148613809Y-98550952D01*
X149042380Y-97931904D02*
X148042380Y-97931904D01*
X148042380Y-97550952D01*
X148090000Y-97455714D01*
X148137619Y-97408095D01*
X148232857Y-97360476D01*
X148375714Y-97360476D01*
X148470952Y-97408095D01*
X148518571Y-97455714D01*
X148566190Y-97550952D01*
X148566190Y-97931904D01*
X149042380Y-96931904D02*
X148042380Y-96931904D01*
X148042380Y-96265238D02*
X148042380Y-96074761D01*
X148090000Y-95979523D01*
X148185238Y-95884285D01*
X148375714Y-95836666D01*
X148709047Y-95836666D01*
X148899523Y-95884285D01*
X148994761Y-95979523D01*
X149042380Y-96074761D01*
X149042380Y-96265238D01*
X148994761Y-96360476D01*
X148899523Y-96455714D01*
X148709047Y-96503333D01*
X148375714Y-96503333D01*
X148185238Y-96455714D01*
X148090000Y-96360476D01*
X148042380Y-96265238D01*
X148042380Y-94741428D02*
X148042380Y-94122380D01*
X148423333Y-94455714D01*
X148423333Y-94312857D01*
X148470952Y-94217619D01*
X148518571Y-94170000D01*
X148613809Y-94122380D01*
X148851904Y-94122380D01*
X148947142Y-94170000D01*
X148994761Y-94217619D01*
X149042380Y-94312857D01*
X149042380Y-94598571D01*
X148994761Y-94693809D01*
X148947142Y-94741428D01*
X148375714Y-93265238D02*
X149042380Y-93265238D01*
X147994761Y-93503333D02*
X148709047Y-93741428D01*
X148709047Y-93122380D01*
X148375714Y-92122380D02*
X148375714Y-91741428D01*
X149042380Y-91979523D02*
X148185238Y-91979523D01*
X148090000Y-91931904D01*
X148042380Y-91836666D01*
X148042380Y-91741428D01*
X149042380Y-91265238D02*
X148994761Y-91360476D01*
X148947142Y-91408095D01*
X148851904Y-91455714D01*
X148566190Y-91455714D01*
X148470952Y-91408095D01*
X148423333Y-91360476D01*
X148375714Y-91265238D01*
X148375714Y-91122380D01*
X148423333Y-91027142D01*
X148470952Y-90979523D01*
X148566190Y-90931904D01*
X148851904Y-90931904D01*
X148947142Y-90979523D01*
X148994761Y-91027142D01*
X149042380Y-91122380D01*
X149042380Y-91265238D01*
X149042380Y-90503333D02*
X148375714Y-90503333D01*
X148566190Y-90503333D02*
X148470952Y-90455714D01*
X148423333Y-90408095D01*
X148375714Y-90312857D01*
X148375714Y-90217619D01*
X148994761Y-89170000D02*
X149042380Y-89074761D01*
X149042380Y-88884285D01*
X148994761Y-88789047D01*
X148899523Y-88741428D01*
X148851904Y-88741428D01*
X148756666Y-88789047D01*
X148709047Y-88884285D01*
X148709047Y-89027142D01*
X148661428Y-89122380D01*
X148566190Y-89170000D01*
X148518571Y-89170000D01*
X148423333Y-89122380D01*
X148375714Y-89027142D01*
X148375714Y-88884285D01*
X148423333Y-88789047D01*
X148994761Y-87931904D02*
X149042380Y-88027142D01*
X149042380Y-88217619D01*
X148994761Y-88312857D01*
X148899523Y-88360476D01*
X148518571Y-88360476D01*
X148423333Y-88312857D01*
X148375714Y-88217619D01*
X148375714Y-88027142D01*
X148423333Y-87931904D01*
X148518571Y-87884285D01*
X148613809Y-87884285D01*
X148709047Y-88360476D01*
X148375714Y-87455714D02*
X149042380Y-87455714D01*
X148470952Y-87455714D02*
X148423333Y-87408095D01*
X148375714Y-87312857D01*
X148375714Y-87170000D01*
X148423333Y-87074761D01*
X148518571Y-87027142D01*
X149042380Y-87027142D01*
X148994761Y-86598571D02*
X149042380Y-86503333D01*
X149042380Y-86312857D01*
X148994761Y-86217619D01*
X148899523Y-86170000D01*
X148851904Y-86170000D01*
X148756666Y-86217619D01*
X148709047Y-86312857D01*
X148709047Y-86455714D01*
X148661428Y-86550952D01*
X148566190Y-86598571D01*
X148518571Y-86598571D01*
X148423333Y-86550952D01*
X148375714Y-86455714D01*
X148375714Y-86312857D01*
X148423333Y-86217619D01*
X149042380Y-85598571D02*
X148994761Y-85693809D01*
X148947142Y-85741428D01*
X148851904Y-85789047D01*
X148566190Y-85789047D01*
X148470952Y-85741428D01*
X148423333Y-85693809D01*
X148375714Y-85598571D01*
X148375714Y-85455714D01*
X148423333Y-85360476D01*
X148470952Y-85312857D01*
X148566190Y-85265238D01*
X148851904Y-85265238D01*
X148947142Y-85312857D01*
X148994761Y-85360476D01*
X149042380Y-85455714D01*
X149042380Y-85598571D01*
X149042380Y-84836666D02*
X148375714Y-84836666D01*
X148566190Y-84836666D02*
X148470952Y-84789047D01*
X148423333Y-84741428D01*
X148375714Y-84646190D01*
X148375714Y-84550952D01*
X149042380Y-83312857D02*
X148994761Y-83408095D01*
X148899523Y-83455714D01*
X148042380Y-83455714D01*
X148994761Y-82550952D02*
X149042380Y-82646190D01*
X149042380Y-82836666D01*
X148994761Y-82931904D01*
X148899523Y-82979523D01*
X148518571Y-82979523D01*
X148423333Y-82931904D01*
X148375714Y-82836666D01*
X148375714Y-82646190D01*
X148423333Y-82550952D01*
X148518571Y-82503333D01*
X148613809Y-82503333D01*
X148709047Y-82979523D01*
X148375714Y-82217619D02*
X148375714Y-81836666D01*
X149042380Y-82074761D02*
X148185238Y-82074761D01*
X148090000Y-82027142D01*
X148042380Y-81931904D01*
X148042380Y-81836666D01*
X148375714Y-81646190D02*
X148375714Y-81265238D01*
X148042380Y-81503333D02*
X148899523Y-81503333D01*
X148994761Y-81455714D01*
X149042380Y-81360476D01*
X149042380Y-81265238D01*
X166870000Y-81455714D02*
X166917619Y-81360476D01*
X166917619Y-81217619D01*
X166870000Y-81074761D01*
X166774761Y-80979523D01*
X166679523Y-80931904D01*
X166489047Y-80884285D01*
X166346190Y-80884285D01*
X166155714Y-80931904D01*
X166060476Y-80979523D01*
X165965238Y-81074761D01*
X165917619Y-81217619D01*
X165917619Y-81312857D01*
X165965238Y-81455714D01*
X166012857Y-81503333D01*
X166346190Y-81503333D01*
X166346190Y-81312857D01*
X165917619Y-81931904D02*
X166917619Y-81931904D01*
X166917619Y-82312857D01*
X166870000Y-82408095D01*
X166822380Y-82455714D01*
X166727142Y-82503333D01*
X166584285Y-82503333D01*
X166489047Y-82455714D01*
X166441428Y-82408095D01*
X166393809Y-82312857D01*
X166393809Y-81931904D01*
X165917619Y-82931904D02*
X166917619Y-82931904D01*
X166917619Y-83598571D02*
X166917619Y-83789047D01*
X166870000Y-83884285D01*
X166774761Y-83979523D01*
X166584285Y-84027142D01*
X166250952Y-84027142D01*
X166060476Y-83979523D01*
X165965238Y-83884285D01*
X165917619Y-83789047D01*
X165917619Y-83598571D01*
X165965238Y-83503333D01*
X166060476Y-83408095D01*
X166250952Y-83360476D01*
X166584285Y-83360476D01*
X166774761Y-83408095D01*
X166870000Y-83503333D01*
X166917619Y-83598571D01*
X166822380Y-85170000D02*
X166870000Y-85217619D01*
X166917619Y-85312857D01*
X166917619Y-85550952D01*
X166870000Y-85646190D01*
X166822380Y-85693809D01*
X166727142Y-85741428D01*
X166631904Y-85741428D01*
X166489047Y-85693809D01*
X165917619Y-85122380D01*
X165917619Y-85741428D01*
X166822380Y-86122380D02*
X166870000Y-86170000D01*
X166917619Y-86265238D01*
X166917619Y-86503333D01*
X166870000Y-86598571D01*
X166822380Y-86646190D01*
X166727142Y-86693809D01*
X166631904Y-86693809D01*
X166489047Y-86646190D01*
X165917619Y-86074761D01*
X165917619Y-86693809D01*
X166584285Y-87741428D02*
X166584285Y-88122380D01*
X165917619Y-87884285D02*
X166774761Y-87884285D01*
X166870000Y-87931904D01*
X166917619Y-88027142D01*
X166917619Y-88122380D01*
X165917619Y-88598571D02*
X165965238Y-88503333D01*
X166012857Y-88455714D01*
X166108095Y-88408095D01*
X166393809Y-88408095D01*
X166489047Y-88455714D01*
X166536666Y-88503333D01*
X166584285Y-88598571D01*
X166584285Y-88741428D01*
X166536666Y-88836666D01*
X166489047Y-88884285D01*
X166393809Y-88931904D01*
X166108095Y-88931904D01*
X166012857Y-88884285D01*
X165965238Y-88836666D01*
X165917619Y-88741428D01*
X165917619Y-88598571D01*
X165917619Y-89360476D02*
X166584285Y-89360476D01*
X166393809Y-89360476D02*
X166489047Y-89408095D01*
X166536666Y-89455714D01*
X166584285Y-89550952D01*
X166584285Y-89646190D01*
X165965238Y-90693809D02*
X165917619Y-90789047D01*
X165917619Y-90979523D01*
X165965238Y-91074761D01*
X166060476Y-91122380D01*
X166108095Y-91122380D01*
X166203333Y-91074761D01*
X166250952Y-90979523D01*
X166250952Y-90836666D01*
X166298571Y-90741428D01*
X166393809Y-90693809D01*
X166441428Y-90693809D01*
X166536666Y-90741428D01*
X166584285Y-90836666D01*
X166584285Y-90979523D01*
X166536666Y-91074761D01*
X165965238Y-91931904D02*
X165917619Y-91836666D01*
X165917619Y-91646190D01*
X165965238Y-91550952D01*
X166060476Y-91503333D01*
X166441428Y-91503333D01*
X166536666Y-91550952D01*
X166584285Y-91646190D01*
X166584285Y-91836666D01*
X166536666Y-91931904D01*
X166441428Y-91979523D01*
X166346190Y-91979523D01*
X166250952Y-91503333D01*
X166584285Y-92408095D02*
X165917619Y-92408095D01*
X166489047Y-92408095D02*
X166536666Y-92455714D01*
X166584285Y-92550952D01*
X166584285Y-92693809D01*
X166536666Y-92789047D01*
X166441428Y-92836666D01*
X165917619Y-92836666D01*
X165965238Y-93265238D02*
X165917619Y-93360476D01*
X165917619Y-93550952D01*
X165965238Y-93646190D01*
X166060476Y-93693809D01*
X166108095Y-93693809D01*
X166203333Y-93646190D01*
X166250952Y-93550952D01*
X166250952Y-93408095D01*
X166298571Y-93312857D01*
X166393809Y-93265238D01*
X166441428Y-93265238D01*
X166536666Y-93312857D01*
X166584285Y-93408095D01*
X166584285Y-93550952D01*
X166536666Y-93646190D01*
X165917619Y-94265238D02*
X165965238Y-94170000D01*
X166012857Y-94122380D01*
X166108095Y-94074761D01*
X166393809Y-94074761D01*
X166489047Y-94122380D01*
X166536666Y-94170000D01*
X166584285Y-94265238D01*
X166584285Y-94408095D01*
X166536666Y-94503333D01*
X166489047Y-94550952D01*
X166393809Y-94598571D01*
X166108095Y-94598571D01*
X166012857Y-94550952D01*
X165965238Y-94503333D01*
X165917619Y-94408095D01*
X165917619Y-94265238D01*
X165917619Y-95027142D02*
X166584285Y-95027142D01*
X166393809Y-95027142D02*
X166489047Y-95074761D01*
X166536666Y-95122380D01*
X166584285Y-95217619D01*
X166584285Y-95312857D01*
X165917619Y-96408095D02*
X166584285Y-96408095D01*
X166393809Y-96408095D02*
X166489047Y-96455714D01*
X166536666Y-96503333D01*
X166584285Y-96598571D01*
X166584285Y-96693809D01*
X165917619Y-97027142D02*
X166584285Y-97027142D01*
X166917619Y-97027142D02*
X166870000Y-96979523D01*
X166822380Y-97027142D01*
X166870000Y-97074761D01*
X166917619Y-97027142D01*
X166822380Y-97027142D01*
X166584285Y-97931904D02*
X165774761Y-97931904D01*
X165679523Y-97884285D01*
X165631904Y-97836666D01*
X165584285Y-97741428D01*
X165584285Y-97598571D01*
X165631904Y-97503333D01*
X165965238Y-97931904D02*
X165917619Y-97836666D01*
X165917619Y-97646190D01*
X165965238Y-97550952D01*
X166012857Y-97503333D01*
X166108095Y-97455714D01*
X166393809Y-97455714D01*
X166489047Y-97503333D01*
X166536666Y-97550952D01*
X166584285Y-97646190D01*
X166584285Y-97836666D01*
X166536666Y-97931904D01*
X165917619Y-98408095D02*
X166917619Y-98408095D01*
X165917619Y-98836666D02*
X166441428Y-98836666D01*
X166536666Y-98789047D01*
X166584285Y-98693809D01*
X166584285Y-98550952D01*
X166536666Y-98455714D01*
X166489047Y-98408095D01*
X166584285Y-99170000D02*
X166584285Y-99550952D01*
X166917619Y-99312857D02*
X166060476Y-99312857D01*
X165965238Y-99360476D01*
X165917619Y-99455714D01*
X165917619Y-99550952D01*
D12*
X190500000Y-58420000D02*
X190500000Y-133350000D01*
X124460000Y-58420000D02*
X190500000Y-58420000D01*
X124460000Y-133350000D02*
X124460000Y-58420000D01*
X190500000Y-133350000D02*
X124460000Y-133350000D01*
D13*
%TO.C,U1*%
X171430000Y-122500000D02*
X143530000Y-122500000D01*
X171430000Y-68100000D02*
X171430000Y-122500000D01*
X143530000Y-68100000D02*
X171430000Y-68100000D01*
X143530000Y-122500000D02*
X143530000Y-68100000D01*
D14*
%TO.C,C1*%
X137160000Y-116840000D02*
G75*
G03*
X137160000Y-116840000I-5120000J0D01*
G01*
X132040000Y-111760000D02*
X132040000Y-121920000D01*
X132080000Y-111760000D02*
X132080000Y-121920000D01*
X132120000Y-111760000D02*
X132120000Y-121920000D01*
X132160000Y-111761000D02*
X132160000Y-121919000D01*
X132200000Y-111762000D02*
X132200000Y-121918000D01*
X132240000Y-111763000D02*
X132240000Y-121917000D01*
X132280000Y-111765000D02*
X132280000Y-121915000D01*
X132320000Y-111767000D02*
X132320000Y-121913000D01*
X132360000Y-111770000D02*
X132360000Y-121910000D01*
X132400000Y-111772000D02*
X132400000Y-121908000D01*
X132440000Y-111775000D02*
X132440000Y-121905000D01*
X132480000Y-111778000D02*
X132480000Y-121902000D01*
X132520000Y-111782000D02*
X132520000Y-121898000D01*
X132560000Y-111786000D02*
X132560000Y-121894000D01*
X132600000Y-111790000D02*
X132600000Y-121890000D01*
X132640000Y-111795000D02*
X132640000Y-121885000D01*
X132680000Y-111800000D02*
X132680000Y-121880000D01*
X132720000Y-111805000D02*
X132720000Y-121875000D01*
X132761000Y-111810000D02*
X132761000Y-121870000D01*
X132801000Y-111816000D02*
X132801000Y-121864000D01*
X132841000Y-111822000D02*
X132841000Y-121858000D01*
X132881000Y-111829000D02*
X132881000Y-121851000D01*
X132921000Y-111836000D02*
X132921000Y-121844000D01*
X132961000Y-111843000D02*
X132961000Y-121837000D01*
X133001000Y-111850000D02*
X133001000Y-121830000D01*
X133041000Y-111858000D02*
X133041000Y-121822000D01*
X133081000Y-111866000D02*
X133081000Y-121814000D01*
X133121000Y-111875000D02*
X133121000Y-121805000D01*
X133161000Y-111884000D02*
X133161000Y-121796000D01*
X133201000Y-111893000D02*
X133201000Y-121787000D01*
X133241000Y-111902000D02*
X133241000Y-121778000D01*
X133281000Y-111912000D02*
X133281000Y-121768000D01*
X133321000Y-111922000D02*
X133321000Y-115599000D01*
X133321000Y-118081000D02*
X133321000Y-121758000D01*
X133361000Y-111933000D02*
X133361000Y-115599000D01*
X133361000Y-118081000D02*
X133361000Y-121747000D01*
X133401000Y-111943000D02*
X133401000Y-115599000D01*
X133401000Y-118081000D02*
X133401000Y-121737000D01*
X133441000Y-111955000D02*
X133441000Y-115599000D01*
X133441000Y-118081000D02*
X133441000Y-121725000D01*
X133481000Y-111966000D02*
X133481000Y-115599000D01*
X133481000Y-118081000D02*
X133481000Y-121714000D01*
X133521000Y-111978000D02*
X133521000Y-115599000D01*
X133521000Y-118081000D02*
X133521000Y-121702000D01*
X133561000Y-111990000D02*
X133561000Y-115599000D01*
X133561000Y-118081000D02*
X133561000Y-121690000D01*
X133601000Y-112003000D02*
X133601000Y-115599000D01*
X133601000Y-118081000D02*
X133601000Y-121677000D01*
X133641000Y-112016000D02*
X133641000Y-115599000D01*
X133641000Y-118081000D02*
X133641000Y-121664000D01*
X133681000Y-112029000D02*
X133681000Y-115599000D01*
X133681000Y-118081000D02*
X133681000Y-121651000D01*
X133721000Y-112043000D02*
X133721000Y-115599000D01*
X133721000Y-118081000D02*
X133721000Y-121637000D01*
X133761000Y-112057000D02*
X133761000Y-115599000D01*
X133761000Y-118081000D02*
X133761000Y-121623000D01*
X133801000Y-112072000D02*
X133801000Y-115599000D01*
X133801000Y-118081000D02*
X133801000Y-121608000D01*
X133841000Y-112086000D02*
X133841000Y-115599000D01*
X133841000Y-118081000D02*
X133841000Y-121594000D01*
X133881000Y-112102000D02*
X133881000Y-115599000D01*
X133881000Y-118081000D02*
X133881000Y-121578000D01*
X133921000Y-112117000D02*
X133921000Y-115599000D01*
X133921000Y-118081000D02*
X133921000Y-121563000D01*
X133961000Y-112133000D02*
X133961000Y-115599000D01*
X133961000Y-118081000D02*
X133961000Y-121547000D01*
X134001000Y-112150000D02*
X134001000Y-115599000D01*
X134001000Y-118081000D02*
X134001000Y-121530000D01*
X134041000Y-112166000D02*
X134041000Y-115599000D01*
X134041000Y-118081000D02*
X134041000Y-121514000D01*
X134081000Y-112183000D02*
X134081000Y-115599000D01*
X134081000Y-118081000D02*
X134081000Y-121497000D01*
X134121000Y-112201000D02*
X134121000Y-115599000D01*
X134121000Y-118081000D02*
X134121000Y-121479000D01*
X134161000Y-112219000D02*
X134161000Y-115599000D01*
X134161000Y-118081000D02*
X134161000Y-121461000D01*
X134201000Y-112237000D02*
X134201000Y-115599000D01*
X134201000Y-118081000D02*
X134201000Y-121443000D01*
X134241000Y-112256000D02*
X134241000Y-115599000D01*
X134241000Y-118081000D02*
X134241000Y-121424000D01*
X134281000Y-112276000D02*
X134281000Y-115599000D01*
X134281000Y-118081000D02*
X134281000Y-121404000D01*
X134321000Y-112295000D02*
X134321000Y-115599000D01*
X134321000Y-118081000D02*
X134321000Y-121385000D01*
X134361000Y-112315000D02*
X134361000Y-115599000D01*
X134361000Y-118081000D02*
X134361000Y-121365000D01*
X134401000Y-112336000D02*
X134401000Y-115599000D01*
X134401000Y-118081000D02*
X134401000Y-121344000D01*
X134441000Y-112357000D02*
X134441000Y-115599000D01*
X134441000Y-118081000D02*
X134441000Y-121323000D01*
X134481000Y-112378000D02*
X134481000Y-115599000D01*
X134481000Y-118081000D02*
X134481000Y-121302000D01*
X134521000Y-112400000D02*
X134521000Y-115599000D01*
X134521000Y-118081000D02*
X134521000Y-121280000D01*
X134561000Y-112423000D02*
X134561000Y-115599000D01*
X134561000Y-118081000D02*
X134561000Y-121257000D01*
X134601000Y-112445000D02*
X134601000Y-115599000D01*
X134601000Y-118081000D02*
X134601000Y-121235000D01*
X134641000Y-112469000D02*
X134641000Y-115599000D01*
X134641000Y-118081000D02*
X134641000Y-121211000D01*
X134681000Y-112493000D02*
X134681000Y-115599000D01*
X134681000Y-118081000D02*
X134681000Y-121187000D01*
X134721000Y-112517000D02*
X134721000Y-115599000D01*
X134721000Y-118081000D02*
X134721000Y-121163000D01*
X134761000Y-112542000D02*
X134761000Y-115599000D01*
X134761000Y-118081000D02*
X134761000Y-121138000D01*
X134801000Y-112567000D02*
X134801000Y-115599000D01*
X134801000Y-118081000D02*
X134801000Y-121113000D01*
X134841000Y-112593000D02*
X134841000Y-115599000D01*
X134841000Y-118081000D02*
X134841000Y-121087000D01*
X134881000Y-112619000D02*
X134881000Y-115599000D01*
X134881000Y-118081000D02*
X134881000Y-121061000D01*
X134921000Y-112646000D02*
X134921000Y-115599000D01*
X134921000Y-118081000D02*
X134921000Y-121034000D01*
X134961000Y-112674000D02*
X134961000Y-115599000D01*
X134961000Y-118081000D02*
X134961000Y-121006000D01*
X135001000Y-112702000D02*
X135001000Y-115599000D01*
X135001000Y-118081000D02*
X135001000Y-120978000D01*
X135041000Y-112730000D02*
X135041000Y-115599000D01*
X135041000Y-118081000D02*
X135041000Y-120950000D01*
X135081000Y-112760000D02*
X135081000Y-115599000D01*
X135081000Y-118081000D02*
X135081000Y-120920000D01*
X135121000Y-112790000D02*
X135121000Y-115599000D01*
X135121000Y-118081000D02*
X135121000Y-120890000D01*
X135161000Y-112820000D02*
X135161000Y-115599000D01*
X135161000Y-118081000D02*
X135161000Y-120860000D01*
X135201000Y-112851000D02*
X135201000Y-115599000D01*
X135201000Y-118081000D02*
X135201000Y-120829000D01*
X135241000Y-112883000D02*
X135241000Y-115599000D01*
X135241000Y-118081000D02*
X135241000Y-120797000D01*
X135281000Y-112915000D02*
X135281000Y-115599000D01*
X135281000Y-118081000D02*
X135281000Y-120765000D01*
X135321000Y-112948000D02*
X135321000Y-115599000D01*
X135321000Y-118081000D02*
X135321000Y-120732000D01*
X135361000Y-112982000D02*
X135361000Y-115599000D01*
X135361000Y-118081000D02*
X135361000Y-120698000D01*
X135401000Y-113016000D02*
X135401000Y-115599000D01*
X135401000Y-118081000D02*
X135401000Y-120664000D01*
X135441000Y-113051000D02*
X135441000Y-115599000D01*
X135441000Y-118081000D02*
X135441000Y-120629000D01*
X135481000Y-113087000D02*
X135481000Y-115599000D01*
X135481000Y-118081000D02*
X135481000Y-120593000D01*
X135521000Y-113124000D02*
X135521000Y-115599000D01*
X135521000Y-118081000D02*
X135521000Y-120556000D01*
X135561000Y-113161000D02*
X135561000Y-115599000D01*
X135561000Y-118081000D02*
X135561000Y-120519000D01*
X135601000Y-113200000D02*
X135601000Y-115599000D01*
X135601000Y-118081000D02*
X135601000Y-120480000D01*
X135641000Y-113239000D02*
X135641000Y-115599000D01*
X135641000Y-118081000D02*
X135641000Y-120441000D01*
X135681000Y-113279000D02*
X135681000Y-115599000D01*
X135681000Y-118081000D02*
X135681000Y-120401000D01*
X135721000Y-113320000D02*
X135721000Y-115599000D01*
X135721000Y-118081000D02*
X135721000Y-120360000D01*
X135761000Y-113362000D02*
X135761000Y-115599000D01*
X135761000Y-118081000D02*
X135761000Y-120318000D01*
X135801000Y-113404000D02*
X135801000Y-120276000D01*
X135841000Y-113448000D02*
X135841000Y-120232000D01*
X135881000Y-113493000D02*
X135881000Y-120187000D01*
X135921000Y-113539000D02*
X135921000Y-120141000D01*
X135961000Y-113586000D02*
X135961000Y-120094000D01*
X136001000Y-113634000D02*
X136001000Y-120046000D01*
X136041000Y-113684000D02*
X136041000Y-119996000D01*
X136081000Y-113734000D02*
X136081000Y-119946000D01*
X136121000Y-113786000D02*
X136121000Y-119894000D01*
X136161000Y-113840000D02*
X136161000Y-119840000D01*
X136201000Y-113895000D02*
X136201000Y-119785000D01*
X136241000Y-113951000D02*
X136241000Y-119729000D01*
X136281000Y-114010000D02*
X136281000Y-119670000D01*
X136321000Y-114070000D02*
X136321000Y-119610000D01*
X136361000Y-114131000D02*
X136361000Y-119549000D01*
X136401000Y-114195000D02*
X136401000Y-119485000D01*
X136441000Y-114261000D02*
X136441000Y-119419000D01*
X136481000Y-114330000D02*
X136481000Y-119350000D01*
X136521000Y-114401000D02*
X136521000Y-119279000D01*
X136561000Y-114475000D02*
X136561000Y-119205000D01*
X136601000Y-114551000D02*
X136601000Y-119129000D01*
X136641000Y-114631000D02*
X136641000Y-119049000D01*
X136681000Y-114715000D02*
X136681000Y-118965000D01*
X136721000Y-114803000D02*
X136721000Y-118877000D01*
X136761000Y-114896000D02*
X136761000Y-118784000D01*
X136801000Y-114994000D02*
X136801000Y-118686000D01*
X136841000Y-115098000D02*
X136841000Y-118582000D01*
X136881000Y-115210000D02*
X136881000Y-118470000D01*
X136921000Y-115330000D02*
X136921000Y-118350000D01*
X136961000Y-115462000D02*
X136961000Y-118218000D01*
X137001000Y-115610000D02*
X137001000Y-118070000D01*
X137041000Y-115778000D02*
X137041000Y-117902000D01*
X137081000Y-115978000D02*
X137081000Y-117702000D01*
X137121000Y-116241000D02*
X137121000Y-117439000D01*
X126560354Y-113965000D02*
X127560354Y-113965000D01*
X127060354Y-113465000D02*
X127060354Y-114465000D01*
%TO.C,LEFT*%
X128210000Y-102700000D02*
X135950000Y-102700000D01*
X135950000Y-102700000D02*
X135950000Y-100040000D01*
X135950000Y-100040000D02*
X128210000Y-100040000D01*
X128210000Y-100040000D02*
X128210000Y-102700000D01*
X129160000Y-100040000D02*
X129160000Y-94040000D01*
X129160000Y-94040000D02*
X129920000Y-94040000D01*
X129920000Y-94040000D02*
X129920000Y-100040000D01*
X129220000Y-100040000D02*
X129220000Y-94040000D01*
X129340000Y-100040000D02*
X129340000Y-94040000D01*
X129460000Y-100040000D02*
X129460000Y-94040000D01*
X129580000Y-100040000D02*
X129580000Y-94040000D01*
X129700000Y-100040000D02*
X129700000Y-94040000D01*
X129820000Y-100040000D02*
X129820000Y-94040000D01*
X129160000Y-103030000D02*
X129160000Y-102700000D01*
X129920000Y-103030000D02*
X129920000Y-102700000D01*
X130810000Y-102700000D02*
X130810000Y-100040000D01*
X131700000Y-100040000D02*
X131700000Y-94040000D01*
X131700000Y-94040000D02*
X132460000Y-94040000D01*
X132460000Y-94040000D02*
X132460000Y-100040000D01*
X131700000Y-103097071D02*
X131700000Y-102700000D01*
X132460000Y-103097071D02*
X132460000Y-102700000D01*
X133350000Y-102700000D02*
X133350000Y-100040000D01*
X134240000Y-100040000D02*
X134240000Y-94040000D01*
X134240000Y-94040000D02*
X135000000Y-94040000D01*
X135000000Y-94040000D02*
X135000000Y-100040000D01*
X134240000Y-103097071D02*
X134240000Y-102700000D01*
X135000000Y-103097071D02*
X135000000Y-102700000D01*
X129540000Y-105410000D02*
X128270000Y-105410000D01*
X128270000Y-105410000D02*
X128270000Y-104140000D01*
%TO.C,RIGHT*%
X179070000Y-105410000D02*
X179070000Y-104140000D01*
X180340000Y-105410000D02*
X179070000Y-105410000D01*
X185800000Y-103097071D02*
X185800000Y-102700000D01*
X185040000Y-103097071D02*
X185040000Y-102700000D01*
X185800000Y-94040000D02*
X185800000Y-100040000D01*
X185040000Y-94040000D02*
X185800000Y-94040000D01*
X185040000Y-100040000D02*
X185040000Y-94040000D01*
X184150000Y-102700000D02*
X184150000Y-100040000D01*
X183260000Y-103097071D02*
X183260000Y-102700000D01*
X182500000Y-103097071D02*
X182500000Y-102700000D01*
X183260000Y-94040000D02*
X183260000Y-100040000D01*
X182500000Y-94040000D02*
X183260000Y-94040000D01*
X182500000Y-100040000D02*
X182500000Y-94040000D01*
X181610000Y-102700000D02*
X181610000Y-100040000D01*
X180720000Y-103030000D02*
X180720000Y-102700000D01*
X179960000Y-103030000D02*
X179960000Y-102700000D01*
X180620000Y-100040000D02*
X180620000Y-94040000D01*
X180500000Y-100040000D02*
X180500000Y-94040000D01*
X180380000Y-100040000D02*
X180380000Y-94040000D01*
X180260000Y-100040000D02*
X180260000Y-94040000D01*
X180140000Y-100040000D02*
X180140000Y-94040000D01*
X180020000Y-100040000D02*
X180020000Y-94040000D01*
X180720000Y-94040000D02*
X180720000Y-100040000D01*
X179960000Y-94040000D02*
X180720000Y-94040000D01*
X179960000Y-100040000D02*
X179960000Y-94040000D01*
X179010000Y-100040000D02*
X179010000Y-102700000D01*
X186750000Y-100040000D02*
X179010000Y-100040000D01*
X186750000Y-102700000D02*
X186750000Y-100040000D01*
X179010000Y-102700000D02*
X186750000Y-102700000D01*
%TD*%
%TO.C,U1*%
D15*
X145888626Y-66256124D02*
X145888626Y-67065960D01*
X145936263Y-67161235D01*
X145983901Y-67208873D01*
X146079175Y-67256510D01*
X146269725Y-67256510D01*
X146365000Y-67208873D01*
X146412637Y-67161235D01*
X146460275Y-67065960D01*
X146460275Y-66256124D01*
X147460661Y-67256510D02*
X146889012Y-67256510D01*
X147174836Y-67256510D02*
X147174836Y-66256124D01*
X147079561Y-66399036D01*
X146984287Y-66494311D01*
X146889012Y-66541949D01*
%TO.C,REF\u002A\u002A*%
D16*
X128206666Y-125792380D02*
X127873333Y-125316190D01*
X127635238Y-125792380D02*
X127635238Y-124792380D01*
X128016190Y-124792380D01*
X128111428Y-124840000D01*
X128159047Y-124887619D01*
X128206666Y-124982857D01*
X128206666Y-125125714D01*
X128159047Y-125220952D01*
X128111428Y-125268571D01*
X128016190Y-125316190D01*
X127635238Y-125316190D01*
X128635238Y-125268571D02*
X128968571Y-125268571D01*
X129111428Y-125792380D02*
X128635238Y-125792380D01*
X128635238Y-124792380D01*
X129111428Y-124792380D01*
X129873333Y-125268571D02*
X129540000Y-125268571D01*
X129540000Y-125792380D02*
X129540000Y-124792380D01*
X130016190Y-124792380D01*
X130540000Y-124792380D02*
X130540000Y-125030476D01*
X130301904Y-124935238D02*
X130540000Y-125030476D01*
X130778095Y-124935238D01*
X130397142Y-125220952D02*
X130540000Y-125030476D01*
X130682857Y-125220952D01*
X131301904Y-124792380D02*
X131301904Y-125030476D01*
X131063809Y-124935238D02*
X131301904Y-125030476D01*
X131540000Y-124935238D01*
X131159047Y-125220952D02*
X131301904Y-125030476D01*
X131444761Y-125220952D01*
X184086666Y-124522380D02*
X183753333Y-124046190D01*
X183515238Y-124522380D02*
X183515238Y-123522380D01*
X183896190Y-123522380D01*
X183991428Y-123570000D01*
X184039047Y-123617619D01*
X184086666Y-123712857D01*
X184086666Y-123855714D01*
X184039047Y-123950952D01*
X183991428Y-123998571D01*
X183896190Y-124046190D01*
X183515238Y-124046190D01*
X184515238Y-123998571D02*
X184848571Y-123998571D01*
X184991428Y-124522380D02*
X184515238Y-124522380D01*
X184515238Y-123522380D01*
X184991428Y-123522380D01*
X185753333Y-123998571D02*
X185420000Y-123998571D01*
X185420000Y-124522380D02*
X185420000Y-123522380D01*
X185896190Y-123522380D01*
X186420000Y-123522380D02*
X186420000Y-123760476D01*
X186181904Y-123665238D02*
X186420000Y-123760476D01*
X186658095Y-123665238D01*
X186277142Y-123950952D02*
X186420000Y-123760476D01*
X186562857Y-123950952D01*
X187181904Y-123522380D02*
X187181904Y-123760476D01*
X186943809Y-123665238D02*
X187181904Y-123760476D01*
X187420000Y-123665238D01*
X187039047Y-123950952D02*
X187181904Y-123760476D01*
X187324761Y-123950952D01*
X128206666Y-59752380D02*
X127873333Y-59276190D01*
X127635238Y-59752380D02*
X127635238Y-58752380D01*
X128016190Y-58752380D01*
X128111428Y-58800000D01*
X128159047Y-58847619D01*
X128206666Y-58942857D01*
X128206666Y-59085714D01*
X128159047Y-59180952D01*
X128111428Y-59228571D01*
X128016190Y-59276190D01*
X127635238Y-59276190D01*
X128635238Y-59228571D02*
X128968571Y-59228571D01*
X129111428Y-59752380D02*
X128635238Y-59752380D01*
X128635238Y-58752380D01*
X129111428Y-58752380D01*
X129873333Y-59228571D02*
X129540000Y-59228571D01*
X129540000Y-59752380D02*
X129540000Y-58752380D01*
X130016190Y-58752380D01*
X130540000Y-58752380D02*
X130540000Y-58990476D01*
X130301904Y-58895238D02*
X130540000Y-58990476D01*
X130778095Y-58895238D01*
X130397142Y-59180952D02*
X130540000Y-58990476D01*
X130682857Y-59180952D01*
X131301904Y-58752380D02*
X131301904Y-58990476D01*
X131063809Y-58895238D02*
X131301904Y-58990476D01*
X131540000Y-58895238D01*
X131159047Y-59180952D02*
X131301904Y-58990476D01*
X131444761Y-59180952D01*
X184086666Y-59752380D02*
X183753333Y-59276190D01*
X183515238Y-59752380D02*
X183515238Y-58752380D01*
X183896190Y-58752380D01*
X183991428Y-58800000D01*
X184039047Y-58847619D01*
X184086666Y-58942857D01*
X184086666Y-59085714D01*
X184039047Y-59180952D01*
X183991428Y-59228571D01*
X183896190Y-59276190D01*
X183515238Y-59276190D01*
X184515238Y-59228571D02*
X184848571Y-59228571D01*
X184991428Y-59752380D02*
X184515238Y-59752380D01*
X184515238Y-58752380D01*
X184991428Y-58752380D01*
X185753333Y-59228571D02*
X185420000Y-59228571D01*
X185420000Y-59752380D02*
X185420000Y-58752380D01*
X185896190Y-58752380D01*
X186420000Y-58752380D02*
X186420000Y-58990476D01*
X186181904Y-58895238D02*
X186420000Y-58990476D01*
X186658095Y-58895238D01*
X186277142Y-59180952D02*
X186420000Y-58990476D01*
X186562857Y-59180952D01*
X187181904Y-58752380D02*
X187181904Y-58990476D01*
X186943809Y-58895238D02*
X187181904Y-58990476D01*
X187420000Y-58895238D01*
X187039047Y-59180952D02*
X187181904Y-58990476D01*
X187324761Y-59180952D01*
%TO.C,C1*%
X131873333Y-110947142D02*
X131825714Y-110994761D01*
X131682857Y-111042380D01*
X131587619Y-111042380D01*
X131444761Y-110994761D01*
X131349523Y-110899523D01*
X131301904Y-110804285D01*
X131254285Y-110613809D01*
X131254285Y-110470952D01*
X131301904Y-110280476D01*
X131349523Y-110185238D01*
X131444761Y-110090000D01*
X131587619Y-110042380D01*
X131682857Y-110042380D01*
X131825714Y-110090000D01*
X131873333Y-110137619D01*
X132825714Y-111042380D02*
X132254285Y-111042380D01*
X132540000Y-111042380D02*
X132540000Y-110042380D01*
X132444761Y-110185238D01*
X132349523Y-110280476D01*
X132254285Y-110328095D01*
%TO.C,LEFT*%
X127452380Y-101282380D02*
X127452380Y-101758571D01*
X126452380Y-101758571D01*
X126928571Y-100949047D02*
X126928571Y-100615714D01*
X127452380Y-100472857D02*
X127452380Y-100949047D01*
X126452380Y-100949047D01*
X126452380Y-100472857D01*
X126928571Y-99710952D02*
X126928571Y-100044285D01*
X127452380Y-100044285D02*
X126452380Y-100044285D01*
X126452380Y-99568095D01*
X126452380Y-99330000D02*
X126452380Y-98758571D01*
X127452380Y-99044285D02*
X126452380Y-99044285D01*
%TO.C,RIGHT*%
X178252380Y-101663333D02*
X177776190Y-101996666D01*
X178252380Y-102234761D02*
X177252380Y-102234761D01*
X177252380Y-101853809D01*
X177300000Y-101758571D01*
X177347619Y-101710952D01*
X177442857Y-101663333D01*
X177585714Y-101663333D01*
X177680952Y-101710952D01*
X177728571Y-101758571D01*
X177776190Y-101853809D01*
X177776190Y-102234761D01*
X178252380Y-101234761D02*
X177252380Y-101234761D01*
X177300000Y-100234761D02*
X177252380Y-100330000D01*
X177252380Y-100472857D01*
X177300000Y-100615714D01*
X177395238Y-100710952D01*
X177490476Y-100758571D01*
X177680952Y-100806190D01*
X177823809Y-100806190D01*
X178014285Y-100758571D01*
X178109523Y-100710952D01*
X178204761Y-100615714D01*
X178252380Y-100472857D01*
X178252380Y-100377619D01*
X178204761Y-100234761D01*
X178157142Y-100187142D01*
X177823809Y-100187142D01*
X177823809Y-100377619D01*
X178252380Y-99758571D02*
X177252380Y-99758571D01*
X177728571Y-99758571D02*
X177728571Y-99187142D01*
X178252380Y-99187142D02*
X177252380Y-99187142D01*
X177252380Y-98853809D02*
X177252380Y-98282380D01*
X178252380Y-98568095D02*
X177252380Y-98568095D01*
%TD*%
M02*
